<?xml version="1.0" encoding="UTF-8" standalone="no"?>
<!DOCTYPE svg PUBLIC "-//W3C//DTD SVG 20010904//EN"
              "http://www.w3.org/TR/2001/REC-SVG-20010904/DTD/svg10.dtd">

<svg xmlns="http://www.w3.org/2000/svg"
     width="92.6334mm" height="92.8027mm"
     viewBox="40 40 467 468">
  <path id="Selection"
        fill="gold" stroke="none" stroke-width="1"
        d="M 236.00,52.42
           C 229.24,53.45 224.57,54.15 218.00,56.54
             204.44,61.48 189.05,73.50 188.09,89.00
             187.44,99.65 192.99,107.53 202.00,112.66
             202.00,112.66 213.91,118.51 213.91,118.51
             218.91,122.41 222.79,132.88 220.26,138.94
             218.70,142.69 215.51,143.05 212.00,143.88
             212.00,143.88 194.00,147.65 194.00,147.65
             194.00,147.65 157.00,155.58 157.00,155.58
             151.18,156.85 143.21,158.11 138.00,160.91
             126.33,167.20 121.86,177.33 122.00,190.00
             122.09,197.47 124.25,204.74 125.79,212.00
             125.79,212.00 133.80,250.00 133.80,250.00
             134.63,254.06 138.38,268.94 137.79,272.00
             136.25,279.96 123.91,283.37 117.00,282.96
             109.91,282.53 109.14,278.75 103.99,274.47
             98.63,270.02 93.02,267.32 86.00,267.04
             66.25,266.24 57.03,285.86 57.14,303.00
             57.14,303.00 57.14,317.00 57.14,317.00
             59.16,331.39 68.10,349.30 81.00,356.64
             90.12,361.83 104.57,361.53 112.12,353.56
             116.57,348.86 118.50,342.18 121.63,338.04
             127.05,330.90 138.67,327.75 146.98,331.15
             148.71,331.85 149.99,332.66 151.07,334.22
             152.57,336.41 155.26,350.45 156.00,354.00
             156.00,354.00 163.00,387.00 163.00,387.00
             164.91,396.25 166.37,405.76 173.18,412.91
             185.99,426.34 202.24,421.89 218.00,418.42
             218.00,418.42 254.00,410.80 254.00,410.80
             257.30,410.13 268.52,407.30 271.00,407.89
             278.51,409.67 284.39,421.62 284.28,429.00
             284.08,443.12 271.07,444.14 270.09,461.00
             269.20,476.33 281.60,485.40 295.00,488.98
             313.18,493.85 335.24,489.11 350.00,477.48
             357.72,471.40 364.67,461.29 363.81,451.00
             363.12,442.58 358.90,436.29 352.00,431.60
             343.07,425.53 331.75,426.12 331.04,410.00
             330.22,391.41 341.84,392.08 356.00,389.20
             356.00,389.20 393.00,381.21 393.00,381.21
             402.34,379.23 411.68,377.93 418.82,370.82
             430.61,359.07 428.27,346.40 425.21,332.00
             425.21,332.00 419.58,305.00 419.58,305.00
             419.58,305.00 414.02,279.00 414.02,279.00
             412.39,268.77 426.47,262.67 435.00,263.04
             448.37,263.62 450.16,276.32 466.00,276.96
             486.82,277.81 495.79,256.81 496.00,239.00
             496.25,216.90 484.48,185.50 459.00,183.33
             448.72,182.45 439.89,189.48 435.18,198.00
             433.04,201.88 431.41,207.92 428.73,210.67
             422.78,216.79 409.12,218.22 402.23,213.01
             397.83,209.69 396.41,195.60 395.12,190.00
             395.12,190.00 391.21,172.00 391.21,172.00
             391.21,172.00 387.00,152.00 387.00,152.00
             383.13,133.31 378.36,115.28 355.00,115.00
             341.71,114.85 311.78,122.84 297.00,125.80
             293.53,126.49 277.43,130.29 275.30,129.81
             270.12,128.66 266.87,117.68 267.34,113.00
             268.65,99.78 283.26,96.15 281.81,79.00
             280.03,57.89 253.77,50.25 236.00,52.42 Z
           M 316.00,165.00
           C 316.00,165.00 329.12,228.00 329.12,228.00
             329.12,228.00 332.77,245.00 332.77,245.00
             332.77,245.00 332.77,251.42 332.77,251.42
             332.77,251.42 318.00,256.00 318.00,256.00
             318.00,256.00 310.58,223.00 310.58,223.00
             310.58,223.00 304.00,189.00 304.00,189.00
             304.00,189.00 302.00,220.00 302.00,220.00
             302.00,220.00 300.96,236.00 300.96,236.00
             300.96,236.00 300.96,250.00 300.96,250.00
             300.96,250.00 300.00,260.00 300.00,260.00
             300.00,260.00 283.00,263.00 283.00,263.00
             283.00,263.00 262.75,222.00 262.75,222.00
             262.75,222.00 254.00,203.00 254.00,203.00
             254.00,203.00 256.80,223.00 256.80,223.00
             256.80,223.00 266.00,267.00 266.00,267.00
             266.00,267.00 249.00,270.00 249.00,270.00
             249.00,270.00 243.21,241.00 243.21,241.00
             243.21,241.00 231.00,183.00 231.00,183.00
             231.00,183.00 258.00,177.00 258.00,177.00
             258.00,177.00 285.00,232.00 285.00,232.00
             285.00,232.00 287.00,210.00 287.00,210.00
             287.00,210.00 288.00,194.00 288.00,194.00
             288.00,194.00 289.00,170.00 289.00,170.00
             289.00,170.00 316.00,165.00 316.00,165.00 Z
           M 208.00,190.00
           C 208.00,190.00 220.21,248.00 220.21,248.00
             220.21,248.00 226.00,278.00 226.00,278.00
             226.00,278.00 209.58,279.89 209.58,279.89
             209.58,279.89 207.20,274.00 207.20,274.00
             207.20,274.00 203.79,258.00 203.79,258.00
             203.79,258.00 195.21,218.00 195.21,218.00
             195.21,218.00 190.00,194.00 190.00,194.00
             190.00,194.00 208.00,190.00 208.00,190.00 Z
           M 364.00,290.00
           C 360.79,290.93 349.93,294.25 347.21,293.31
             342.85,291.82 343.11,285.56 334.00,285.04
             331.44,284.90 328.46,285.08 326.00,285.79
             321.09,287.21 312.19,292.68 316.05,298.79
             319.66,304.49 330.14,303.78 336.00,304.04
             336.00,304.04 344.00,304.91 344.00,304.91
             357.03,305.82 367.93,308.00 372.90,322.00
             380.45,343.30 365.30,356.26 346.00,360.58
             327.12,364.80 307.07,359.71 303.00,338.00
             306.38,337.23 315.91,333.67 318.62,334.66
             322.13,335.94 322.86,342.36 331.00,345.44
             337.56,347.91 346.91,345.61 351.95,340.87
             356.43,336.64 358.51,331.31 353.61,326.39
             349.89,322.67 340.17,322.06 335.00,322.00
             320.39,321.83 301.47,319.87 298.43,302.00
             297.82,299.14 297.87,293.82 298.43,291.00
             302.91,272.05 335.48,264.21 351.00,272.65
             358.56,276.76 361.30,282.27 364.00,290.00 Z
           M 261.00,282.00
           C 261.00,282.00 280.42,331.00 280.42,331.00
             280.42,331.00 294.00,367.00 294.00,367.00
             290.59,367.29 280.33,369.92 278.27,369.23
             275.04,368.15 270.95,354.52 270.00,351.00
             270.00,351.00 248.00,356.20 248.00,356.20
             245.42,356.72 239.19,357.69 237.22,358.98
             232.56,362.07 232.01,374.52 228.91,378.70
             226.38,382.13 215.30,383.42 211.00,384.00
             211.00,384.00 218.28,359.00 218.28,359.00
             218.28,359.00 232.34,314.00 232.34,314.00
             232.34,314.00 241.00,286.00 241.00,286.00
             241.00,286.00 261.00,282.00 261.00,282.00 Z
           M 252.00,304.00
           C 252.00,304.00 239.00,343.00 239.00,343.00
             239.00,343.00 264.00,338.00 264.00,338.00
             264.00,338.00 258.05,319.00 258.05,319.00
             258.05,319.00 252.00,304.00 252.00,304.00 Z" />
</svg>
