<svg width="322" height="167" xmlns="http://www.w3.org/2000/svg" xmlns:xlink="http://www.w3.org/1999/xlink" xml:space="preserve" overflow="hidden"><g transform="translate(-916 -520)"><path d="M117.498 95.0261 132.063 95.0261 132.063 134.939 146.17 134.939C145.42 134.202 144.787 133.354 144.292 132.427 143.137 130.287 142.56 127.308 142.56 123.49L142.56 106.002 137.457 106.002 137.457 95.0261 143.938 95.0261 143.938 89.2209 157.234 86.5264 157.234 95.0261 167.591 95.0261 167.591 106.002 157.25 106.002 157.25 122.517C157.25 123.905 157.597 124.935 158.29 125.607 159.076 126.333 160.124 126.709 161.193 126.648 162.41 126.66 163.624 126.522 164.808 126.237 165.9 125.963 167.041 125.616 168.231 125.196L168.231 134.96 180.351 134.96C177.857 133.465 175.774 131.371 174.291 128.869 172.366 125.675 171.404 121.567 171.404 116.546 171.404 111.452 172.271 107.262 174.005 103.978 175.604 100.844 178.153 98.2954 181.287 96.6958 184.69 95.0521 188.433 94.2375 192.211 94.3186 196.31 94.3186 199.849 95.0365 202.828 96.4722 205.745 97.8361 208.162 100.081 209.736 102.891 211.355 105.763 212.163 109.359 212.16 113.68L212.16 120.197 186.125 120.197C186.184 122.278 187.076 124.248 188.601 125.665 190.125 127.09 192.383 127.797 195.363 127.797 197.801 127.82 200.233 127.556 202.609 127.012 204.954 126.437 207.232 125.621 209.408 124.577L209.408 134.939 218.017 134.939 218.017 95.0261 231.131 95.0261 231.131 101.788 231.838 101.788C232.619 100.376 233.619 99.0938 234.798 97.9911 235.985 96.8612 237.358 95.9426 238.855 95.2757 240.312 94.6094 241.894 94.2635 243.495 94.2614 244.33 94.2645 245.164 94.3217 245.992 94.4331 246.856 94.5423 247.506 94.6359 247.927 94.7087L246.621 108.53C246.02 108.385 245.41 108.279 244.796 108.213 243.758 108.112 242.716 108.068 241.675 108.083 240.688 108.089 239.703 108.176 238.73 108.343 237.683 108.522 236.678 108.898 235.771 109.451 234.785 110.069 233.993 110.95 233.482 111.994 232.822 113.432 232.515 115.007 232.587 116.587L232.587 134.924 269.894 134.924C269.884 60.4134 209.465 0 134.939 0 60.4134 0 0 60.4134 0 134.939L117.498 134.939ZM117.498 79.6808 132.063 79.6808 132.063 90.1208 117.498 90.1208Z" fill="#FDC831" transform="matrix(1 0 0 1.00011 916.08 520)"/><path d="M196.107 105.138C193.658 103.708 190.568 104.003 188.434 105.872 187.28 106.954 186.603 108.656 186.406 110.98L198.921 110.98C198.913 109.806 198.663 108.646 198.188 107.573 197.74 106.58 197.018 105.735 196.107 105.138Z" fill="#FDC831" transform="matrix(1 0 0 1.00011 916.08 520)"/><path d="M4.33828 163.034C3.52425 163.051 2.71803 162.873 1.98708 162.514 1.33399 162.174 0.813839 161.624 0.509774 160.953 0.137617 160.098-0.0400474 159.171-0.0104034 158.238-0.0489315 157.272 0.149289 156.311 0.566994 155.439 0.917807 154.75 1.48143 154.192 2.17434 153.848 2.91726 153.491 3.73298 153.314 4.55676 153.328 5.11736 153.318 5.6768 153.381 6.22132 153.515 6.64413 153.624 7.05533 153.773 7.44894 153.962L6.71029 155.949C6.30976 155.788 5.94043 155.658 5.59711 155.554 5.26004 155.45 4.90938 155.398 4.55676 155.398 4.16286 155.381 3.77416 155.493 3.44878 155.715 3.13465 155.948 2.90464 156.276 2.79335 156.652 2.63646 157.157 2.56267 157.684 2.57488 158.212 2.55933 158.733 2.63864 159.253 2.80896 159.747 2.93193 160.113 3.16661 160.431 3.47999 160.657 3.80067 160.862 4.17611 160.966 4.55676 160.953 5.03347 160.96 5.50801 160.888 5.96124 160.74 6.38206 160.588 6.78359 160.387 7.15764 160.142L7.15764 162.321C6.78317 162.56 6.37192 162.736 5.94043 162.842 5.41625 162.971 4.87818 163.036 4.33828 163.034Z" fill="#FDC831" transform="matrix(1 0 0 1.00011 916.08 520)"/><path d="M11.4439 149.858 11.4439 152.506C11.4439 152.969 11.4439 153.411 11.4023 153.827 11.3607 154.243 11.3451 154.54 11.3295 154.716L11.4439 154.716C11.6235 154.409 11.8643 154.142 12.1514 153.931 12.4263 153.73 12.7344 153.578 13.0617 153.484 13.4108 153.388 13.7713 153.341 14.1332 153.343 14.7382 153.33 15.3385 153.451 15.8914 153.697 16.3878 153.934 16.7947 154.324 17.0514 154.81 17.3537 155.418 17.4969 156.093 17.4676 156.771L17.4676 162.868 14.9395 162.868 14.9395 157.406C14.9729 156.876 14.846 156.349 14.5754 155.892 14.3094 155.538 13.883 155.343 13.4414 155.372 13.0106 155.349 12.5848 155.474 12.2346 155.726 11.9226 155.998 11.7057 156.362 11.6156 156.766 11.4804 157.317 11.4175 157.884 11.4283 158.451L11.4283 162.852 8.89504 162.852 8.89504 149.848Z" fill="#FDC831" transform="matrix(1 0 0 1.00011 916.08 520)"/><path d="M20.9319 149.858C21.2744 149.85 21.612 149.94 21.9047 150.118 22.2019 150.353 22.3556 150.725 22.3104 151.101 22.3536 151.477 22.2003 151.848 21.9047 152.084 21.3045 152.445 20.5542 152.445 19.954 152.084 19.6604 151.847 19.5091 151.476 19.5535 151.101 19.507 150.726 19.6587 150.354 19.954 150.118 20.248 149.939 20.5876 149.848 20.9319 149.858ZM22.196 153.499 22.196 162.862 19.6575 162.862 19.6575 153.499Z" fill="#FDC831" transform="matrix(1 0 0 1.00011 916.08 520)"/><path d="M29.7073 153.343C30.5815 153.301 31.4391 153.592 32.1054 154.16 32.7088 154.68 33.0105 155.575 33.0105 156.761L33.0105 162.868 30.472 162.868 30.472 157.406C30.507 156.877 30.3819 156.349 30.1131 155.892 29.849 155.536 29.4212 155.34 28.9791 155.372 28.3384 155.302 27.716 155.613 27.3874 156.168 27.0682 156.887 26.9238 157.671 26.966 158.457L26.966 162.857 24.4484 162.857 24.4484 153.494 26.3886 153.494 26.7267 154.69 26.8724 154.69C27.0587 154.376 27.3129 154.108 27.6162 153.905 27.918 153.701 28.2522 153.55 28.6046 153.458 28.966 153.374 29.3365 153.336 29.7073 153.343Z" fill="#FDC831" transform="matrix(1 0 0 1.00011 916.08 520)"/><path d="M39.0133 153.328C40.0346 153.258 41.048 153.548 41.8795 154.144 42.5812 154.775 42.9502 155.695 42.8782 156.636L42.8782 162.878 41.094 162.878 40.5739 161.604 40.5114 161.604C40.2728 161.909 39.9986 162.185 39.6948 162.425 39.4094 162.642 39.0842 162.802 38.7376 162.894 38.3093 163.002 37.8685 163.052 37.4268 163.044 36.9167 163.051 36.4117 162.943 35.9495 162.727 35.5077 162.52 35.1434 162.177 34.9091 161.749 34.6411 161.236 34.512 160.663 34.5346 160.085 34.4729 159.221 34.8676 158.388 35.575 157.89 36.5238 157.348 37.6037 157.078 38.696 157.109L40.3086 157.057 40.3086 156.646C40.3422 156.248 40.2018 155.856 39.9236 155.57 39.6311 155.331 39.2606 155.208 38.8833 155.226 38.4358 155.225 37.9906 155.29 37.562 155.419 37.1188 155.552 36.6844 155.714 36.2616 155.902L35.4241 154.181C35.95 153.908 36.5072 153.699 37.0835 153.562 37.7146 153.404 38.3628 153.326 39.0133 153.328ZM40.3606 158.529 39.3774 158.566C38.7757 158.523 38.1766 158.679 37.6713 159.008 37.3549 159.274 37.1785 159.671 37.1927 160.085 37.162 160.401 37.2884 160.712 37.5308 160.917 37.7936 161.091 38.1053 161.177 38.4203 161.161 38.9239 161.177 39.4151 161.004 39.7988 160.678 40.1859 160.328 40.3926 159.82 40.3606 159.299Z" fill="#FDC831" transform="matrix(1 0 0 1.00011 916.08 520)"/><path d="M56.8814 153.343C57.6534 153.33 58.417 153.508 59.1026 153.863 59.7159 154.187 60.2168 154.689 60.5383 155.304 60.9008 156.019 61.0793 156.813 61.0585 157.614L61.0585 158.847 55.0504 158.847C55.0436 159.473 55.2741 160.079 55.6954 160.542 56.1443 160.971 56.7509 161.193 57.3704 161.156 57.9187 161.161 58.4648 161.1 58.9986 160.974 59.5229 160.839 60.0337 160.655 60.5227 160.423L60.5227 162.394C60.0665 162.628 59.5822 162.804 59.0818 162.914 58.4805 163.032 57.8687 163.086 57.256 163.076 56.4018 163.093 55.555 162.915 54.7799 162.556 54.0699 162.223 53.4805 161.677 53.0945 160.995 52.6591 160.173 52.4474 159.251 52.4807 158.321 52.4469 157.359 52.6451 156.403 53.0581 155.533 53.3962 154.839 53.9414 154.266 54.6187 153.895 55.3147 153.523 56.0928 153.333 56.8814 153.343ZM56.8814 155.159C56.4252 155.144 55.982 155.314 55.6538 155.632 55.2918 156.047 55.0925 156.579 55.092 157.13L58.6552 157.13C58.6526 156.783 58.5819 156.44 58.4472 156.121 58.3275 155.834 58.1241 155.589 57.8646 155.419 57.5759 155.236 57.2383 155.145 56.897 155.159Z" fill="#FDC831" transform="matrix(1 0 0 1.00011 916.08 520)"/><path d="M71.2123 153.52 71.2123 162.883 69.2669 162.883 68.9235 161.687 68.7935 161.687C68.6036 161.997 68.3477 162.262 68.0444 162.462 67.7433 162.666 67.4088 162.816 67.0561 162.904 66.6899 163.003 66.3117 163.052 65.9325 163.05 65.3343 163.063 64.7408 162.942 64.1951 162.696 63.703 162.46 63.2999 162.071 63.0455 161.588 62.747 160.979 62.606 160.305 62.6346 159.627L62.6346 153.52 65.1679 153.52 65.1679 158.977C65.1304 159.506 65.2552 160.034 65.5268 160.49 65.791 160.849 66.2217 161.045 66.666 161.011 67.0988 161.038 67.5279 160.913 67.878 160.657 68.1917 160.386 68.4091 160.021 68.497 159.617 68.6281 159.065 68.6895 158.498 68.6791 157.931L68.6791 153.536Z" fill="#FDC831" transform="matrix(1 0 0 1.00011 916.08 520)"/><path d="M82.7083 149.858C83.051 149.849 83.3886 149.939 83.681 150.118 83.978 150.353 84.132 150.725 84.0867 151.101 84.1299 151.477 83.9764 151.848 83.681 152.084 83.3918 152.271 83.0526 152.366 82.7083 152.355 82.3623 152.366 82.0216 152.271 81.7303 152.084 81.4385 151.846 81.2871 151.476 81.3298 151.101 81.2856 150.727 81.4364 150.355 81.7303 150.118 82.0247 149.939 82.3639 149.849 82.7083 149.858ZM83.9723 153.499 83.9723 162.862 81.439 162.862 81.439 153.499Z" fill="#FDC831" transform="matrix(1 0 0 1.00011 916.08 520)"/><path d="M91.494 153.343C92.3664 153.301 93.2221 153.593 93.8869 154.16 94.4903 154.68 94.792 155.575 94.792 156.761L94.792 162.868 92.2587 162.868 92.2587 157.406C92.292 156.876 92.1651 156.349 91.8946 155.892 91.6303 155.536 91.2028 155.34 90.7606 155.372 90.1296 155.311 89.521 155.622 89.2001 156.168 88.8765 156.886 88.7303 157.671 88.7735 158.457L88.7735 162.857 86.2402 162.857 86.2402 153.494 88.1753 153.494 88.5186 154.69 88.6591 154.69C88.8453 154.376 89.0997 154.108 89.4029 153.905 89.7046 153.701 90.0391 153.55 90.3913 153.458 90.7528 153.374 91.1232 153.336 91.494 153.343Z" fill="#FDC831" transform="matrix(1 0 0 1.00011 916.08 520)"/><path d="M99.9209 163.034C98.9295 163.051 97.989 162.595 97.3877 161.806 96.7374 160.99 96.4097 159.793 96.4097 158.207 96.4097 156.62 96.7426 155.398 97.4033 154.566 98.0207 153.759 98.9893 153.3 100.004 153.333 100.402 153.327 100.797 153.388 101.175 153.515 101.493 153.63 101.79 153.797 102.054 154.009 102.294 154.21 102.504 154.445 102.678 154.706L102.761 154.706C102.73 154.524 102.688 154.264 102.641 153.915 102.595 153.559 102.572 153.199 102.574 152.839L102.574 149.848 105.118 149.848 105.118 162.852 103.172 162.852 102.678 161.64 102.574 161.64C102.408 161.901 102.205 162.135 101.97 162.337 101.715 162.553 101.422 162.72 101.107 162.831 100.727 162.97 100.325 163.039 99.9209 163.034ZM100.81 161C101.373 161.057 101.926 160.824 102.277 160.381 102.603 159.811 102.761 159.16 102.73 158.503L102.73 158.228C102.769 157.51 102.626 156.794 102.314 156.147 101.976 155.626 101.369 155.345 100.753 155.424 100.216 155.41 99.7129 155.686 99.4372 156.147 99.0892 156.783 98.9253 157.504 98.9638 158.228 98.9118 158.953 99.0788 159.678 99.4424 160.308 99.7456 160.762 100.265 161.025 100.81 161Z" fill="#FDC831" transform="matrix(1 0 0 1.00011 916.08 520)"/><path d="M108.597 149.858C108.94 149.849 109.278 149.939 109.57 150.118 109.867 150.353 110.021 150.725 109.976 151.101 110.019 151.477 109.866 151.848 109.57 152.084 109.281 152.271 108.942 152.366 108.597 152.355 108.252 152.366 107.911 152.271 107.62 152.084 107.328 151.846 107.176 151.476 107.219 151.101 107.175 150.727 107.326 150.355 107.62 150.118 107.914 149.939 108.253 149.849 108.597 149.858ZM109.862 153.499 109.862 162.862 107.328 162.862 107.328 153.499Z" fill="#FDC831" transform="matrix(1 0 0 1.00011 916.08 520)"/><path d="M115.906 153.328C116.927 153.259 117.94 153.548 118.772 154.144 119.474 154.775 119.843 155.695 119.771 156.636L119.771 162.878 118.002 162.878 117.508 161.604 117.441 161.604C117.205 161.91 116.932 162.186 116.629 162.425 116.343 162.641 116.018 162.801 115.672 162.894 115.242 163.002 114.799 163.053 114.356 163.044 113.848 163.051 113.344 162.943 112.884 162.727 112.443 162.518 112.08 162.176 111.843 161.749 111.576 161.236 111.447 160.663 111.469 160.085 111.407 159.221 111.802 158.388 112.509 157.89 113.458 157.346 114.538 157.076 115.63 157.109L117.243 157.057 117.243 156.646C117.277 156.248 117.136 155.856 116.858 155.57 116.566 155.331 116.195 155.208 115.818 155.226 115.368 155.225 114.921 155.29 114.491 155.419 114.049 155.552 113.617 155.714 113.196 155.902L112.358 154.17C112.884 153.896 113.441 153.689 114.018 153.551 114.636 153.401 115.27 153.326 115.906 153.328ZM117.253 158.529 116.27 158.566C115.668 158.523 115.069 158.678 114.564 159.008 114.246 159.273 114.069 159.671 114.085 160.085 114.055 160.401 114.181 160.712 114.423 160.917 114.686 161.091 114.998 161.177 115.313 161.161 115.817 161.177 116.308 161.004 116.691 160.678 117.078 160.328 117.285 159.82 117.253 159.299Z" fill="#FDC831" transform="matrix(1 0 0 1.00011 916.08 520)"/><path d="M129.202 166.977C128.901 166.974 128.6 166.952 128.302 166.909 128.042 166.878 127.785 166.829 127.532 166.764L127.532 164.761C127.722 164.812 127.915 164.851 128.109 164.881 128.311 164.907 128.515 164.919 128.718 164.917 129.034 164.927 129.343 164.826 129.592 164.631 129.872 164.324 130.003 163.91 129.951 163.497L129.951 153.52 132.484 153.52 132.484 163.856C132.492 164.393 132.382 164.926 132.162 165.417 131.942 165.891 131.578 166.285 131.121 166.54 130.531 166.852 129.869 167.003 129.202 166.977ZM129.842 151.096C129.796 150.72 129.95 150.347 130.247 150.113 130.85 149.766 131.59 149.766 132.193 150.113 132.493 150.345 132.65 150.719 132.604 151.096 132.648 151.473 132.492 151.846 132.193 152.079 131.595 152.44 130.845 152.44 130.247 152.079 129.953 151.844 129.8 151.475 129.842 151.101Z" fill="#FDC831" transform="matrix(1 0 0 1.00011 916.08 520)"/><path d="M138.529 153.328C139.55 153.258 140.563 153.547 141.395 154.144 142.096 154.775 142.465 155.695 142.393 156.636L142.393 162.878 140.625 162.878 140.131 161.604 140.068 161.604C139.831 161.911 139.557 162.186 139.252 162.425 138.966 162.642 138.641 162.802 138.294 162.894 137.866 163.002 137.425 163.052 136.984 163.044 136.473 163.051 135.969 162.943 135.506 162.727 135.066 162.519 134.702 162.176 134.466 161.749 134.198 161.236 134.069 160.663 134.091 160.085 134.029 159.221 134.424 158.388 135.132 157.89 136.081 157.348 137.16 157.078 138.253 157.109L139.865 157.057 139.865 156.646C139.899 156.248 139.759 155.856 139.48 155.57 139.188 155.331 138.817 155.208 138.44 155.226 137.993 155.225 137.547 155.29 137.119 155.419 136.676 155.553 136.242 155.715 135.818 155.902L134.981 154.181C135.507 153.908 136.064 153.699 136.64 153.562 137.258 153.408 137.892 153.329 138.529 153.328ZM139.876 158.529 138.893 158.566C138.291 158.523 137.692 158.679 137.186 159.008 136.87 159.274 136.694 159.671 136.708 160.085 136.677 160.401 136.804 160.712 137.046 160.917 137.309 161.091 137.62 161.177 137.936 161.161 138.439 161.177 138.93 161.004 139.314 160.678 139.701 160.328 139.908 159.82 139.876 159.299Z" fill="#FDC831" transform="matrix(1 0 0 1.00011 916.08 520)"/><path d="M149.749 153.343C150.744 153.323 151.689 153.78 152.292 154.571 152.937 155.393 153.26 156.594 153.26 158.176 153.285 159.086 153.129 159.994 152.802 160.844 152.548 161.501 152.109 162.07 151.538 162.483 150.992 162.852 150.345 163.044 149.686 163.034 149.293 163.043 148.9 162.985 148.526 162.862 148.23 162.761 147.953 162.611 147.704 162.42 147.487 162.249 147.29 162.054 147.117 161.838L146.981 161.838C147.028 162.064 147.061 162.294 147.08 162.524 147.08 162.758 147.117 162.987 147.117 163.211L147.117 166.977 144.578 166.977 144.578 153.52 146.659 153.52 147.013 154.732 147.132 154.732C147.304 154.476 147.507 154.242 147.736 154.035 147.989 153.81 148.282 153.633 148.599 153.515 148.97 153.391 149.359 153.332 149.749 153.343ZM148.937 155.382C148.571 155.366 148.207 155.462 147.897 155.658 147.622 155.865 147.421 156.155 147.325 156.485 147.194 156.94 147.129 157.411 147.132 157.884L147.132 158.16C147.123 158.675 147.179 159.188 147.299 159.689 147.385 160.06 147.587 160.394 147.876 160.641 148.196 160.876 148.588 160.992 148.984 160.969 149.333 160.983 149.674 160.866 149.941 160.641 150.209 160.383 150.398 160.055 150.487 159.695 150.624 159.186 150.688 158.66 150.675 158.134 150.724 157.415 150.576 156.695 150.248 156.053 149.969 155.604 149.465 155.345 148.937 155.382Z" fill="#FDC831" transform="matrix(1 0 0 1.00011 916.08 520)"/><path d="M158.737 153.328C159.759 153.259 160.772 153.548 161.604 154.144 162.305 154.775 162.674 155.695 162.602 156.636L162.602 162.878 160.834 162.878 160.34 161.604 160.272 161.604C160.036 161.91 159.764 162.186 159.46 162.425 159.175 162.642 158.85 162.802 158.503 162.894 158.073 163.002 157.63 163.053 157.187 163.044 156.679 163.051 156.176 162.943 155.715 162.727 155.275 162.518 154.911 162.176 154.675 161.749 154.409 161.236 154.281 160.662 154.306 160.085 154.244 159.221 154.638 158.388 155.346 157.89 156.294 157.346 157.375 157.076 158.467 157.109L160.079 157.057 160.079 156.646C160.113 156.248 159.973 155.856 159.695 155.57 159.402 155.331 159.031 155.208 158.654 155.226 158.205 155.225 157.758 155.29 157.328 155.419 156.886 155.552 156.454 155.714 156.032 155.902L155.195 154.181C155.721 153.908 156.278 153.699 156.854 153.562 157.47 153.408 158.103 153.33 158.737 153.328ZM160.085 158.529 159.102 158.566C158.5 158.523 157.9 158.678 157.395 159.008 157.077 159.273 156.9 159.671 156.917 160.085 156.886 160.401 157.012 160.712 157.255 160.917 157.518 161.091 157.829 161.177 158.144 161.161 158.648 161.177 159.139 161.004 159.523 160.678 159.91 160.328 160.117 159.82 160.085 159.299Z" fill="#FDC831" transform="matrix(1 0 0 1.00011 916.08 520)"/><path d="M170.067 153.343C170.94 153.3 171.795 153.592 172.46 154.16 173.063 154.68 173.37 155.575 173.37 156.761L173.37 162.868 170.832 162.868 170.832 157.406C170.867 156.876 170.741 156.348 170.467 155.892 170.203 155.536 169.776 155.34 169.333 155.372 168.702 155.311 168.094 155.622 167.773 156.168 167.454 156.887 167.309 157.671 167.352 158.457L167.352 162.857 164.813 162.857 164.813 153.494 166.748 153.494 167.091 154.69 167.232 154.69C167.42 154.378 167.674 154.109 167.976 153.905 168.278 153.702 168.612 153.551 168.964 153.458 169.326 153.374 169.696 153.336 170.067 153.343Z" fill="#FDC831" transform="matrix(1 0 0 1.00011 916.08 520)"/><path d="M186.083 149.858 186.083 155.674C186.083 156.027 186.083 156.376 186.042 156.714 186 157.052 185.984 157.416 185.948 157.754L185.984 157.754C186.156 157.51 186.333 157.271 186.505 157.031 186.676 156.792 186.879 156.558 187.082 156.334L189.683 153.494 192.539 153.494 188.85 157.546 192.762 162.842 189.865 162.842 187.186 159.055 186.099 159.929 186.099 162.842 183.56 162.842 183.56 149.837Z" fill="#FDC831" transform="matrix(1 0 0 1.00011 916.08 520)"/><path d="M202.125 158.176C202.138 158.882 202.032 159.585 201.813 160.256 201.624 160.823 201.316 161.344 200.908 161.78 200.509 162.198 200.019 162.52 199.478 162.722 198.874 162.94 198.236 163.047 197.595 163.039 196.98 163.045 196.37 162.937 195.795 162.722 195.258 162.516 194.773 162.195 194.375 161.78 193.961 161.344 193.644 160.824 193.444 160.256 193.214 159.587 193.103 158.883 193.116 158.176 193.087 157.264 193.274 156.359 193.662 155.533 194.001 154.84 194.546 154.268 195.223 153.895 195.968 153.503 196.8 153.31 197.642 153.333 198.449 153.317 199.246 153.511 199.956 153.895 200.625 154.277 201.167 154.846 201.517 155.533 201.937 156.35 202.146 157.258 202.125 158.176ZM195.701 158.176C195.688 158.703 195.755 159.229 195.899 159.736 196.003 160.109 196.221 160.44 196.523 160.683 196.847 160.908 197.237 161.02 197.631 161 198.02 161.018 198.405 160.907 198.723 160.683 199.024 160.441 199.239 160.109 199.337 159.736 199.601 158.723 199.601 157.66 199.337 156.646 199.236 156.281 199.018 155.958 198.718 155.726 198.393 155.504 198.004 155.395 197.61 155.413 197.035 155.367 196.479 155.634 196.154 156.111 195.813 156.743 195.657 157.458 195.701 158.176Z" fill="#FDC831" transform="matrix(1 0 0 1.00011 916.08 520)"/><path d="M208.981 153.343C209.111 153.343 209.262 153.343 209.429 153.343 209.567 153.354 209.703 153.371 209.84 153.395L209.647 155.788C209.532 155.756 209.413 155.735 209.293 155.726 209.163 155.719 209.033 155.719 208.903 155.726 208.582 155.725 208.262 155.767 207.951 155.85 207.65 155.929 207.367 156.067 207.119 156.256 206.871 156.453 206.673 156.707 206.542 156.995 206.391 157.346 206.321 157.726 206.334 158.108L206.334 162.868 203.795 162.868 203.795 153.504 205.715 153.504 206.089 155.065 206.214 155.065C206.4 154.742 206.631 154.448 206.901 154.191 207.174 153.926 207.493 153.71 207.842 153.556 208.202 153.404 208.591 153.331 208.981 153.343Z" fill="#FDC831" transform="matrix(1 0 0 1.00011 916.08 520)"/><path d="M214.937 153.343C215.708 153.329 216.47 153.508 217.153 153.863 217.769 154.185 218.272 154.688 218.594 155.304 218.957 156.019 219.135 156.813 219.114 157.614L219.114 158.847 213.106 158.847C213.097 159.473 213.328 160.081 213.751 160.542 214.2 160.972 214.807 161.194 215.426 161.156 215.975 161.16 216.521 161.1 217.055 160.974 217.579 160.839 218.089 160.654 218.579 160.423L218.579 162.394C218.121 162.629 217.635 162.804 217.133 162.914 216.533 163.032 215.923 163.086 215.312 163.076 214.458 163.094 213.61 162.916 212.836 162.556 212.126 162.223 211.536 161.677 211.151 160.995 210.713 160.174 210.501 159.251 210.537 158.321 210.495 157.361 210.684 156.405 211.088 155.533 211.427 154.839 211.972 154.267 212.649 153.895 213.352 153.519 214.14 153.329 214.937 153.343ZM214.937 155.159C214.481 155.143 214.038 155.314 213.71 155.632 213.348 156.047 213.149 156.579 213.148 157.13L216.706 157.13C216.708 156.784 216.639 156.44 216.503 156.121 216.383 155.834 216.18 155.589 215.921 155.419 215.632 155.236 215.294 155.145 214.953 155.159Z" fill="#FDC831" transform="matrix(1 0 0 1.00011 916.08 520)"/><path d="M224.545 153.328C225.566 153.258 226.579 153.548 227.411 154.144 228.113 154.775 228.482 155.695 228.41 156.636L228.41 162.878 226.641 162.878 226.147 161.604 226.08 161.604C225.844 161.91 225.571 162.186 225.268 162.425 224.983 162.642 224.657 162.802 224.311 162.894 223.883 163.002 223.442 163.052 223 163.044 222.49 163.051 221.985 162.943 221.523 162.727 221.082 162.518 220.719 162.176 220.482 161.749 220.219 161.235 220.092 160.662 220.113 160.085 220.051 159.221 220.446 158.388 221.154 157.89 222.102 157.348 223.182 157.078 224.275 157.109L225.887 157.057 225.887 156.646C225.921 156.248 225.781 155.856 225.502 155.57 225.21 155.331 224.839 155.208 224.462 155.226 224.015 155.225 223.569 155.29 223.141 155.419 222.697 155.551 222.263 155.713 221.84 155.902L221.003 154.181C221.529 153.908 222.086 153.699 222.662 153.562 223.278 153.408 223.91 153.33 224.545 153.328ZM225.892 158.529 224.909 158.566C224.307 158.523 223.708 158.678 223.203 159.008 222.885 159.273 222.708 159.671 222.724 160.085 222.694 160.401 222.82 160.712 223.063 160.917 223.325 161.091 223.637 161.177 223.952 161.161 224.456 161.177 224.947 161.004 225.331 160.678 225.718 160.328 225.925 159.82 225.892 159.299Z" fill="#FDC831" transform="matrix(1 0 0 1.00011 916.08 520)"/><path d="M243.776 153.343C243.906 153.343 244.052 153.343 244.223 153.343 244.395 153.343 244.53 153.374 244.634 153.395L244.442 155.788C244.326 155.756 244.208 155.735 244.088 155.726 243.957 155.719 243.824 155.719 243.693 155.726 243.371 155.725 243.051 155.767 242.741 155.85 242.441 155.93 242.16 156.068 241.914 156.256 241.663 156.451 241.464 156.705 241.336 156.995 241.185 157.346 241.112 157.726 241.123 158.108L241.123 162.868 238.59 162.868 238.59 153.504 240.509 153.504 240.884 155.065 241.009 155.065C241.195 154.742 241.426 154.448 241.695 154.191 241.969 153.926 242.288 153.71 242.637 153.556 242.996 153.403 243.385 153.33 243.776 153.343Z" fill="#FDC831" transform="matrix(1 0 0 1.00011 916.08 520)"/><path d="M254.424 153.52 254.424 162.883 252.479 162.883 252.141 161.687 252.005 161.687C251.815 161.997 251.559 162.262 251.256 162.462 250.956 162.666 250.621 162.816 250.268 162.904 249.902 163.003 249.523 163.052 249.144 163.05 248.546 163.062 247.953 162.941 247.407 162.696 246.917 162.456 246.515 162.069 246.257 161.588 245.959 160.979 245.818 160.305 245.846 159.627L245.846 153.52 248.38 153.52 248.38 158.977C248.342 159.506 248.467 160.034 248.739 160.49 249.003 160.849 249.434 161.045 249.878 161.011 250.312 161.037 250.742 160.912 251.095 160.657 251.407 160.385 251.624 160.021 251.714 159.617 251.84 159.064 251.9 158.498 251.891 157.931L251.891 153.536Z" fill="#FDC831" transform="matrix(1 0 0 1.00011 916.08 520)"/><path d="M263.147 160.09C263.165 160.658 263.009 161.219 262.7 161.697 262.373 162.16 261.909 162.509 261.374 162.696 260.668 162.94 259.924 163.054 259.179 163.034 258.621 163.041 258.064 162.999 257.514 162.909 257.033 162.821 256.564 162.68 256.115 162.488L256.115 160.381C256.638 160.616 257.182 160.806 257.738 160.948 258.235 161.082 258.747 161.156 259.262 161.167 259.622 161.192 259.982 161.116 260.302 160.948 260.503 160.823 260.625 160.602 260.625 160.366 260.625 160.215 260.579 160.069 260.495 159.944 260.342 159.765 260.154 159.62 259.943 159.518 259.657 159.356 259.215 159.154 258.612 158.893 258.111 158.691 257.63 158.442 257.176 158.15 256.828 157.927 256.542 157.622 256.344 157.26 256.151 156.851 256.058 156.401 256.073 155.949 256.034 155.166 256.416 154.422 257.077 153.999 257.887 153.524 258.818 153.296 259.756 153.343 260.312 153.34 260.867 153.399 261.41 153.52 261.968 153.648 262.51 153.834 263.028 154.077L262.258 155.918C261.834 155.729 261.4 155.564 260.958 155.424 260.555 155.298 260.136 155.233 259.714 155.231 259.427 155.216 259.141 155.268 258.877 155.382 258.698 155.466 258.588 155.649 258.596 155.845 258.595 155.992 258.647 156.134 258.742 156.246 258.903 156.408 259.094 156.538 259.303 156.631 259.584 156.776 259.995 156.958 260.541 157.182 261.015 157.372 261.473 157.6 261.909 157.864 262.278 158.077 262.587 158.379 262.809 158.743 263.042 159.153 263.159 159.619 263.147 160.09Z" fill="#FDC831" transform="matrix(1 0 0 1.00011 916.08 520)"/><path d="M271.184 160.09C271.202 160.658 271.046 161.219 270.737 161.697 270.41 162.16 269.946 162.509 269.41 162.696 268.707 162.94 267.965 163.054 267.22 163.034 266.661 163.041 266.103 162.999 265.551 162.909 265.07 162.821 264.601 162.68 264.151 162.488L264.151 160.381C264.675 160.616 265.218 160.806 265.774 160.948 266.273 161.083 266.787 161.156 267.304 161.167 267.664 161.192 268.025 161.117 268.344 160.948 268.545 160.823 268.667 160.602 268.667 160.366 268.669 160.215 268.623 160.067 268.536 159.944 268.385 159.764 268.197 159.619 267.985 159.518 267.704 159.356 267.257 159.154 266.653 158.893 266.153 158.691 265.672 158.442 265.218 158.15 264.87 157.929 264.585 157.623 264.391 157.26 264.195 156.852 264.103 156.402 264.12 155.949 264.078 155.167 264.459 154.422 265.119 153.999 265.931 153.524 266.864 153.297 267.803 153.343 268.358 153.34 268.911 153.4 269.452 153.52 270.01 153.647 270.552 153.834 271.07 154.077L270.305 155.918C269.881 155.731 269.446 155.566 269.005 155.424 268.602 155.299 268.183 155.234 267.761 155.231 267.473 155.216 267.184 155.267 266.919 155.382 266.74 155.466 266.63 155.649 266.638 155.845 266.637 155.992 266.689 156.134 266.784 156.246 266.946 156.409 267.139 156.539 267.351 156.631 267.626 156.776 268.037 156.958 268.583 157.182 269.058 157.374 269.517 157.601 269.957 157.864 270.322 158.079 270.629 158.381 270.851 158.743 271.085 159.152 271.2 159.619 271.184 160.09Z" fill="#FDC831" transform="matrix(1 0 0 1.00011 916.08 520)"/><path d="M274.009 149.858C274.352 149.849 274.689 149.939 274.982 150.118 275.279 150.353 275.433 150.725 275.387 151.101 275.43 151.477 275.277 151.848 274.982 152.084 274.692 152.271 274.353 152.366 274.009 152.355 273.663 152.366 273.322 152.271 273.031 152.084 272.739 151.846 272.588 151.476 272.63 151.101 272.586 150.727 272.737 150.355 273.031 150.118 273.325 149.939 273.664 149.849 274.009 149.858ZM275.273 153.499 275.273 162.862 272.74 162.862 272.74 153.499Z" fill="#FDC831" transform="matrix(1 0 0 1.00011 916.08 520)"/><path d="M281.317 153.328C282.338 153.259 283.352 153.548 284.183 154.144 284.885 154.775 285.254 155.695 285.182 156.636L285.182 162.878 283.408 162.878 282.919 161.604 282.852 161.604C282.616 161.91 282.344 162.186 282.04 162.425 281.754 162.641 281.43 162.801 281.083 162.894 280.653 163.002 280.21 163.052 279.767 163.044 279.259 163.051 278.755 162.943 278.295 162.727 277.854 162.518 277.491 162.176 277.255 161.749 276.987 161.236 276.858 160.663 276.88 160.085 276.818 159.221 277.213 158.388 277.921 157.89 278.869 157.346 279.949 157.076 281.042 157.109L282.659 157.057 282.659 156.646C282.693 156.248 282.553 155.856 282.274 155.57 281.981 155.333 281.611 155.211 281.234 155.226 280.787 155.225 280.341 155.29 279.913 155.419 279.471 155.552 279.039 155.714 278.618 155.902L277.775 154.17C278.299 153.897 278.854 153.689 279.429 153.551 280.047 153.401 280.681 153.327 281.317 153.328ZM282.665 158.529 281.681 158.566C281.078 158.524 280.477 158.679 279.97 159.008 279.655 159.275 279.481 159.672 279.497 160.085 279.464 160.401 279.591 160.713 279.835 160.917 280.097 161.091 280.41 161.177 280.724 161.161 281.228 161.177 281.719 161.004 282.103 160.678 282.49 160.328 282.697 159.82 282.665 159.299Z" fill="#FDC831" transform="matrix(1 0 0 1.00011 916.08 520)"/><path d="M303.893 153.52 303.893 162.883 301.948 162.883 301.604 161.687 301.469 161.687C301.28 161.996 301.026 162.26 300.725 162.462 300.422 162.665 300.086 162.815 299.732 162.904 299.367 163.002 298.991 163.052 298.613 163.05 298.015 163.063 297.421 162.943 296.876 162.696 296.384 162.457 295.98 162.07 295.721 161.588 295.422 160.979 295.281 160.305 295.31 159.627L295.31 153.52 297.849 153.52 297.849 158.977C297.813 159.505 297.936 160.032 298.202 160.49 298.466 160.849 298.897 161.045 299.341 161.011 299.776 161.037 300.206 160.912 300.559 160.657 300.871 160.385 301.088 160.021 301.178 159.617 301.307 159.065 301.367 158.498 301.355 157.931L301.355 153.536Z" fill="#FDC831" transform="matrix(1 0 0 1.00011 916.08 520)"/><path d="M312.627 160.09C312.644 160.658 312.488 161.219 312.179 161.697 311.852 162.16 311.388 162.509 310.853 162.696 310.148 162.94 309.404 163.054 308.658 163.034 308.1 163.041 307.544 162.999 306.993 162.909 306.513 162.821 306.043 162.68 305.594 162.488L305.594 160.381C306.118 160.616 306.661 160.806 307.217 160.948 307.714 161.082 308.226 161.156 308.741 161.167 309.102 161.192 309.461 161.116 309.781 160.948 309.982 160.823 310.104 160.602 310.104 160.366 310.107 160.215 310.061 160.067 309.974 159.944 309.821 159.765 309.634 159.62 309.422 159.518 309.136 159.356 308.694 159.154 308.091 158.893 307.59 158.691 307.109 158.442 306.655 158.15 306.308 157.927 306.021 157.622 305.823 157.26 305.632 156.85 305.541 156.401 305.558 155.949 305.515 155.167 305.897 154.422 306.556 153.999 307.368 153.524 308.301 153.296 309.24 153.343 309.795 153.34 310.348 153.4 310.889 153.52 311.447 153.648 311.989 153.834 312.507 154.077L311.742 155.918C311.316 155.73 310.881 155.565 310.437 155.424 310.036 155.299 309.619 155.234 309.199 155.231 308.91 155.216 308.621 155.267 308.356 155.382 308.178 155.466 308.067 155.649 308.075 155.845 308.074 155.992 308.126 156.134 308.221 156.246 308.383 156.408 308.573 156.538 308.783 156.631 309.064 156.776 309.474 156.958 310.021 157.182 310.494 157.372 310.952 157.6 311.389 157.864 312.191 158.307 312.666 159.174 312.606 160.09Z" fill="#FDC831" transform="matrix(1 0 0 1.00011 916.08 520)"/><path d="M317.969 153.328C318.992 153.259 320.007 153.548 320.84 154.144 321.542 154.775 321.911 155.695 321.839 156.636L321.839 162.878 320.065 162.878 319.576 161.604 319.509 161.604C319.273 161.91 319.001 162.186 318.697 162.425 318.411 162.641 318.086 162.801 317.74 162.894 317.31 163.001 316.867 163.052 316.424 163.044 315.914 163.051 315.409 162.943 314.947 162.727 314.507 162.517 314.144 162.175 313.906 161.749 313.639 161.236 313.509 160.663 313.532 160.085 313.47 159.221 313.865 158.388 314.572 157.89 315.521 157.346 316.601 157.076 317.693 157.109L319.306 157.057 319.306 156.646C319.341 156.249 319.202 155.857 318.926 155.57 318.632 155.333 318.263 155.211 317.886 155.226 317.438 155.225 316.993 155.29 316.565 155.419 316.123 155.552 315.691 155.714 315.269 155.902L314.427 154.181C314.953 153.908 315.51 153.701 316.086 153.562 316.702 153.409 317.334 153.33 317.969 153.328ZM319.316 158.529 318.338 158.566C317.735 158.524 317.134 158.679 316.627 159.008 316.311 159.274 316.134 159.671 316.148 160.085 316.117 160.402 316.246 160.714 316.492 160.917 316.754 161.091 317.066 161.177 317.381 161.161 317.885 161.175 318.375 161.003 318.76 160.678 319.143 160.325 319.347 159.819 319.316 159.299Z" fill="#FDC831" transform="matrix(1 0 0 1.00011 916.08 520)"/></g></svg>