<svg width="350" height="350" version="1.1" xmlns="http://www.w3.org/2000/svg" xmlns:xlink="http://www.w3.org/1999/xlink"><svg><rect x="0" y="0" width="350" height="350" style="fill:#FFD009;shape-rendering:crispEdges;"></rect><path x="0" y="0" style="fill:#000;shape-rendering:crispEdges;" d="M10,10 V20 H20 V10 H10 Z M20,10 V20 H30 V10 H20 Z M30,10 V20 H40 V10 H30 Z M40,10 V20 H50 V10 H40 Z M50,10 V20 H60 V10 H50 Z M60,10 V20 H70 V10 H60 Z M70,10 V20 H80 V10 H70 Z M110,10 V20 H120 V10 H110 Z M120,10 V20 H130 V10 H120 Z M130,10 V20 H140 V10 H130 Z M140,10 V20 H150 V10 H140 Z M200,10 V20 H210 V10 H200 Z M210,10 V20 H220 V10 H210 Z M220,10 V20 H230 V10 H220 Z M250,10 V20 H260 V10 H250 Z M270,10 V20 H280 V10 H270 Z M280,10 V20 H290 V10 H280 Z M290,10 V20 H300 V10 H290 Z M300,10 V20 H310 V10 H300 Z M310,10 V20 H320 V10 H310 Z M320,10 V20 H330 V10 H320 Z M330,10 V20 H340 V10 H330 Z M10,20 V30 H20 V20 H10 Z M70,20 V30 H80 V20 H70 Z M90,20 V30 H100 V20 H90 Z M140,20 V30 H150 V20 H140 Z M150,20 V30 H160 V20 H150 Z M160,20 V30 H170 V20 H160 Z M170,20 V30 H180 V20 H170 Z M180,20 V30 H190 V20 H180 Z M190,20 V30 H200 V20 H190 Z M200,20 V30 H210 V20 H200 Z M210,20 V30 H220 V20 H210 Z M220,20 V30 H230 V20 H220 Z M240,20 V30 H250 V20 H240 Z M270,20 V30 H280 V20 H270 Z M330,20 V30 H340 V20 H330 Z M10,30 V40 H20 V30 H10 Z M30,30 V40 H40 V30 H30 Z M40,30 V40 H50 V30 H40 Z M50,30 V40 H60 V30 H50 Z M70,30 V40 H80 V30 H70 Z M90,30 V40 H100 V30 H90 Z M100,30 V40 H110 V30 H100 Z M110,30 V40 H120 V30 H110 Z M130,30 V40 H140 V30 H130 Z M150,30 V40 H160 V30 H150 Z M200,30 V40 H210 V30 H200 Z M240,30 V40 H250 V30 H240 Z M270,30 V40 H280 V30 H270 Z M290,30 V40 H300 V30 H290 Z M300,30 V40 H310 V30 H300 Z M310,30 V40 H320 V30 H310 Z M330,30 V40 H340 V30 H330 Z M10,40 V50 H20 V40 H10 Z M30,40 V50 H40 V40 H30 Z M40,40 V50 H50 V40 H40 Z M50,40 V50 H60 V40 H50 Z M70,40 V50 H80 V40 H70 Z M90,40 V50 H100 V40 H90 Z M130,40 V50 H140 V40 H130 Z M140,40 V50 H150 V40 H140 Z M160,40 V50 H170 V40 H160 Z M190,40 V50 H200 V40 H190 Z M220,40 V50 H230 V40 H220 Z M270,40 V50 H280 V40 H270 Z M290,40 V50 H300 V40 H290 Z M300,40 V50 H310 V40 H300 Z M310,40 V50 H320 V40 H310 Z M330,40 V50 H340 V40 H330 Z M10,50 V60 H20 V50 H10 Z M30,50 V60 H40 V50 H30 Z M40,50 V60 H50 V50 H40 Z M50,50 V60 H60 V50 H50 Z M70,50 V60 H80 V50 H70 Z M100,50 V60 H110 V50 H100 Z M110,50 V60 H120 V50 H110 Z M120,50 V60 H130 V50 H120 Z M150,50 V60 H160 V50 H150 Z M230,50 V60 H240 V50 H230 Z M240,50 V60 H250 V50 H240 Z M270,50 V60 H280 V50 H270 Z M290,50 V60 H300 V50 H290 Z M300,50 V60 H310 V50 H300 Z M310,50 V60 H320 V50 H310 Z M330,50 V60 H340 V50 H330 Z M10,60 V70 H20 V60 H10 Z M70,60 V70 H80 V60 H70 Z M90,60 V70 H100 V60 H90 Z M100,60 V70 H110 V60 H100 Z M110,60 V70 H120 V60 H110 Z M130,60 V70 H140 V60 H130 Z M170,60 V70 H180 V60 H170 Z M180,60 V70 H190 V60 H180 Z M200,60 V70 H210 V60 H200 Z M210,60 V70 H220 V60 H210 Z M220,60 V70 H230 V60 H220 Z M250,60 V70 H260 V60 H250 Z M270,60 V70 H280 V60 H270 Z M330,60 V70 H340 V60 H330 Z M10,70 V80 H20 V70 H10 Z M20,70 V80 H30 V70 H20 Z M30,70 V80 H40 V70 H30 Z M40,70 V80 H50 V70 H40 Z M50,70 V80 H60 V70 H50 Z M60,70 V80 H70 V70 H60 Z M70,70 V80 H80 V70 H70 Z M90,70 V80 H100 V70 H90 Z M110,70 V80 H120 V70 H110 Z M130,70 V80 H140 V70 H130 Z M150,70 V80 H160 V70 H150 Z M170,70 V80 H180 V70 H170 Z M190,70 V80 H200 V70 H190 Z M210,70 V80 H220 V70 H210 Z M230,70 V80 H240 V70 H230 Z M250,70 V80 H260 V70 H250 Z M270,70 V80 H280 V70 H270 Z M280,70 V80 H290 V70 H280 Z M290,70 V80 H300 V70 H290 Z M300,70 V80 H310 V70 H300 Z M310,70 V80 H320 V70 H310 Z M320,70 V80 H330 V70 H320 Z M330,70 V80 H340 V70 H330 Z M130,80 V90 H140 V80 H130 Z M150,80 V90 H160 V80 H150 Z M220,80 V90 H230 V80 H220 Z M230,80 V90 H240 V80 H230 Z M240,80 V90 H250 V80 H240 Z M20,90 V100 H30 V90 H20 Z M30,90 V100 H40 V90 H30 Z M70,90 V100 H80 V90 H70 Z M100,90 V100 H110 V90 H100 Z M120,90 V100 H130 V90 H120 Z M150,90 V100 H160 V90 H150 Z M160,90 V100 H170 V90 H160 Z M170,90 V100 H180 V90 H170 Z M210,90 V100 H220 V90 H210 Z M220,90 V100 H230 V90 H220 Z M250,90 V100 H260 V90 H250 Z M260,90 V100 H270 V90 H260 Z M280,90 V100 H290 V90 H280 Z M300,90 V100 H310 V90 H300 Z M310,90 V100 H320 V90 H310 Z M320,90 V100 H330 V90 H320 Z M10,100 V110 H20 V100 H10 Z M20,100 V110 H30 V100 H20 Z M30,100 V110 H40 V100 H30 Z M80,100 V110 H90 V100 H80 Z M90,100 V110 H100 V100 H90 Z M110,100 V110 H120 V100 H110 Z M120,100 V110 H130 V100 H120 Z M130,100 V110 H140 V100 H130 Z M140,100 V110 H150 V100 H140 Z M150,100 V110 H160 V100 H150 Z M160,100 V110 H170 V100 H160 Z M170,100 V110 H180 V100 H170 Z M200,100 V110 H210 V100 H200 Z M210,100 V110 H220 V100 H210 Z M220,100 V110 H230 V100 H220 Z M230,100 V110 H240 V100 H230 Z M260,100 V110 H270 V100 H260 Z M280,100 V110 H290 V100 H280 Z M290,100 V110 H300 V100 H290 Z M300,100 V110 H310 V100 H300 Z M310,100 V110 H320 V100 H310 Z M330,100 V110 H340 V100 H330 Z M10,110 V120 H20 V110 H10 Z M20,110 V120 H30 V110 H20 Z M30,110 V120 H40 V110 H30 Z M40,110 V120 H50 V110 H40 Z M50,110 V120 H60 V110 H50 Z M70,110 V120 H80 V110 H70 Z M100,110 V120 H110 V110 H100 Z M130,110 V120 H140 V110 H130 Z M140,110 V120 H150 V110 H140 Z M150,110 V120 H160 V110 H150 Z M160,110 V120 H170 V110 H160 Z M210,110 V120 H220 V110 H210 Z M230,110 V120 H240 V110 H230 Z M240,110 V120 H250 V110 H240 Z M260,110 V120 H270 V110 H260 Z M290,110 V120 H300 V110 H290 Z M300,110 V120 H310 V110 H300 Z M330,110 V120 H340 V110 H330 Z M10,120 V130 H20 V120 H10 Z M20,120 V130 H30 V120 H20 Z M40,120 V130 H50 V120 H40 Z M50,120 V130 H60 V120 H50 Z M90,120 V130 H100 V120 H90 Z M110,120 V130 H120 V120 H110 Z M150,120 V130 H160 V120 H150 Z M170,120 V130 H180 V120 H170 Z M190,120 V130 H200 V120 H190 Z M230,120 V130 H240 V120 H230 Z M240,120 V130 H250 V120 H240 Z M270,120 V130 H280 V120 H270 Z M290,120 V130 H300 V120 H290 Z M300,120 V130 H310 V120 H300 Z M10,130 V140 H20 V130 H10 Z M20,130 V140 H30 V130 H20 Z M50,130 V140 H60 V130 H50 Z M70,130 V140 H80 V130 H70 Z M80,130 V140 H90 V130 H80 Z M90,130 V140 H100 V130 H90 Z M110,130 V140 H120 V130 H110 Z M120,130 V140 H130 V130 H120 Z M140,130 V140 H150 V130 H140 Z M160,130 V140 H170 V130 H160 Z M170,130 V140 H180 V130 H170 Z M190,130 V140 H200 V130 H190 Z M300,130 V140 H310 V130 H300 Z M310,130 V140 H320 V130 H310 Z M320,130 V140 H330 V130 H320 Z M10,140 V150 H20 V140 H10 Z M20,140 V150 H30 V140 H20 Z M40,140 V150 H50 V140 H40 Z M90,140 V150 H100 V140 H90 Z M100,140 V150 H110 V140 H100 Z M120,140 V150 H130 V140 H120 Z M150,140 V150 H160 V140 H150 Z M190,140 V150 H200 V140 H190 Z M210,140 V150 H220 V140 H210 Z M220,140 V150 H230 V140 H220 Z M250,140 V150 H260 V140 H250 Z M260,140 V150 H270 V140 H260 Z M290,140 V150 H300 V140 H290 Z M310,140 V150 H320 V140 H310 Z M320,140 V150 H330 V140 H320 Z M330,140 V150 H340 V140 H330 Z M20,150 V160 H30 V150 H20 Z M30,150 V160 H40 V150 H30 Z M40,150 V160 H50 V150 H40 Z M70,150 V160 H80 V150 H70 Z M90,150 V160 H100 V150 H90 Z M130,150 V160 H140 V150 H130 Z M150,150 V160 H160 V150 H150 Z M160,150 V160 H170 V150 H160 Z M170,150 V160 H180 V150 H170 Z M180,150 V160 H190 V150 H180 Z M190,150 V160 H200 V150 H190 Z M200,150 V160 H210 V150 H200 Z M220,150 V160 H230 V150 H220 Z M240,150 V160 H250 V150 H240 Z M260,150 V160 H270 V150 H260 Z M310,150 V160 H320 V150 H310 Z M330,150 V160 H340 V150 H330 Z M10,160 V170 H20 V160 H10 Z M40,160 V170 H50 V160 H40 Z M100,160 V170 H110 V160 H100 Z M110,160 V170 H120 V160 H110 Z M150,160 V170 H160 V160 H150 Z M160,160 V170 H170 V160 H160 Z M170,160 V170 H180 V160 H170 Z M190,160 V170 H200 V160 H190 Z M200,160 V170 H210 V160 H200 Z M220,160 V170 H230 V160 H220 Z M230,160 V170 H240 V160 H230 Z M240,160 V170 H250 V160 H240 Z M260,160 V170 H270 V160 H260 Z M270,160 V170 H280 V160 H270 Z M280,160 V170 H290 V160 H280 Z M300,160 V170 H310 V160 H300 Z M330,160 V170 H340 V160 H330 Z M10,170 V180 H20 V170 H10 Z M20,170 V180 H30 V170 H20 Z M40,170 V180 H50 V170 H40 Z M50,170 V180 H60 V170 H50 Z M60,170 V180 H70 V170 H60 Z M70,170 V180 H80 V170 H70 Z M80,170 V180 H90 V170 H80 Z M130,170 V180 H140 V170 H130 Z M140,170 V180 H150 V170 H140 Z M150,170 V180 H160 V170 H150 Z M180,170 V180 H190 V170 H180 Z M190,170 V180 H200 V170 H190 Z M220,170 V180 H230 V170 H220 Z M230,170 V180 H240 V170 H230 Z M240,170 V180 H250 V170 H240 Z M250,170 V180 H260 V170 H250 Z M280,170 V180 H290 V170 H280 Z M300,170 V180 H310 V170 H300 Z M310,170 V180 H320 V170 H310 Z M320,170 V180 H330 V170 H320 Z M330,170 V180 H340 V170 H330 Z M20,180 V190 H30 V180 H20 Z M50,180 V190 H60 V180 H50 Z M80,180 V190 H90 V180 H80 Z M90,180 V190 H100 V180 H90 Z M100,180 V190 H110 V180 H100 Z M120,180 V190 H130 V180 H120 Z M140,180 V190 H150 V180 H140 Z M160,180 V190 H170 V180 H160 Z M170,180 V190 H180 V180 H170 Z M180,180 V190 H190 V180 H180 Z M220,180 V190 H230 V180 H220 Z M250,180 V190 H260 V180 H250 Z M260,180 V190 H270 V180 H260 Z M290,180 V190 H300 V180 H290 Z M330,180 V190 H340 V180 H330 Z M10,190 V200 H20 V190 H10 Z M30,190 V200 H40 V190 H30 Z M40,190 V200 H50 V190 H40 Z M50,190 V200 H60 V190 H50 Z M60,190 V200 H70 V190 H60 Z M70,190 V200 H80 V190 H70 Z M80,190 V200 H90 V190 H80 Z M90,190 V200 H100 V190 H90 Z M110,190 V200 H120 V190 H110 Z M150,190 V200 H160 V190 H150 Z M200,190 V200 H210 V190 H200 Z M220,190 V200 H230 V190 H220 Z M260,190 V200 H270 V190 H260 Z M270,190 V200 H280 V190 H270 Z M300,190 V200 H310 V190 H300 Z M310,190 V200 H320 V190 H310 Z M10,200 V210 H20 V200 H10 Z M30,200 V210 H40 V200 H30 Z M80,200 V210 H90 V200 H80 Z M100,200 V210 H110 V200 H100 Z M120,200 V210 H130 V200 H120 Z M130,200 V210 H140 V200 H130 Z M150,200 V210 H160 V200 H150 Z M200,200 V210 H210 V200 H200 Z M230,200 V210 H240 V200 H230 Z M250,200 V210 H260 V200 H250 Z M260,200 V210 H270 V200 H260 Z M270,200 V210 H280 V200 H270 Z M290,200 V210 H300 V200 H290 Z M300,200 V210 H310 V200 H300 Z M330,200 V210 H340 V200 H330 Z M10,210 V220 H20 V210 H10 Z M20,210 V220 H30 V210 H20 Z M30,210 V220 H40 V210 H30 Z M70,210 V220 H80 V210 H70 Z M90,210 V220 H100 V210 H90 Z M100,210 V220 H110 V210 H100 Z M130,210 V220 H140 V210 H130 Z M140,210 V220 H150 V210 H140 Z M150,210 V220 H160 V210 H150 Z M170,210 V220 H180 V210 H170 Z M180,210 V220 H190 V210 H180 Z M190,210 V220 H200 V210 H190 Z M220,210 V220 H230 V210 H220 Z M230,210 V220 H240 V210 H230 Z M240,210 V220 H250 V210 H240 Z M260,210 V220 H270 V210 H260 Z M270,210 V220 H280 V210 H270 Z M280,210 V220 H290 V210 H280 Z M310,210 V220 H320 V210 H310 Z M320,210 V220 H330 V210 H320 Z M10,220 V230 H20 V220 H10 Z M40,220 V230 H50 V220 H40 Z M60,220 V230 H70 V220 H60 Z M90,220 V230 H100 V220 H90 Z M110,220 V230 H120 V220 H110 Z M120,220 V230 H130 V220 H120 Z M130,220 V230 H140 V220 H130 Z M140,220 V230 H150 V220 H140 Z M150,220 V230 H160 V220 H150 Z M160,220 V230 H170 V220 H160 Z M170,220 V230 H180 V220 H170 Z M190,220 V230 H200 V220 H190 Z M220,220 V230 H230 V220 H220 Z M230,220 V230 H240 V220 H230 Z M260,220 V230 H270 V220 H260 Z M270,220 V230 H280 V220 H270 Z M300,220 V230 H310 V220 H300 Z M330,220 V230 H340 V220 H330 Z M50,230 V240 H60 V230 H50 Z M60,230 V240 H70 V230 H60 Z M70,230 V240 H80 V230 H70 Z M90,230 V240 H100 V230 H90 Z M110,230 V240 H120 V230 H110 Z M120,230 V240 H130 V230 H120 Z M130,230 V240 H140 V230 H130 Z M170,230 V240 H180 V230 H170 Z M180,230 V240 H190 V230 H180 Z M200,230 V240 H210 V230 H200 Z M210,230 V240 H220 V230 H210 Z M220,230 V240 H230 V230 H220 Z M250,230 V240 H260 V230 H250 Z M290,230 V240 H300 V230 H290 Z M300,230 V240 H310 V230 H300 Z M310,230 V240 H320 V230 H310 Z M320,230 V240 H330 V230 H320 Z M10,240 V250 H20 V240 H10 Z M20,240 V250 H30 V240 H20 Z M50,240 V250 H60 V240 H50 Z M60,240 V250 H70 V240 H60 Z M90,240 V250 H100 V240 H90 Z M100,240 V250 H110 V240 H100 Z M110,240 V250 H120 V240 H110 Z M130,240 V250 H140 V240 H130 Z M140,240 V250 H150 V240 H140 Z M160,240 V250 H170 V240 H160 Z M180,240 V250 H190 V240 H180 Z M200,240 V250 H210 V240 H200 Z M220,240 V250 H230 V240 H220 Z M230,240 V250 H240 V240 H230 Z M240,240 V250 H250 V240 H240 Z M250,240 V250 H260 V240 H250 Z M270,240 V250 H280 V240 H270 Z M280,240 V250 H290 V240 H280 Z M290,240 V250 H300 V240 H290 Z M300,240 V250 H310 V240 H300 Z M320,240 V250 H330 V240 H320 Z M330,240 V250 H340 V240 H330 Z M20,250 V260 H30 V250 H20 Z M30,250 V260 H40 V250 H30 Z M40,250 V260 H50 V250 H40 Z M50,250 V260 H60 V250 H50 Z M70,250 V260 H80 V250 H70 Z M80,250 V260 H90 V250 H80 Z M90,250 V260 H100 V250 H90 Z M130,250 V260 H140 V250 H130 Z M180,250 V260 H190 V250 H180 Z M190,250 V260 H200 V250 H190 Z M200,250 V260 H210 V250 H200 Z M230,250 V260 H240 V250 H230 Z M240,250 V260 H250 V250 H240 Z M250,250 V260 H260 V250 H250 Z M260,250 V260 H270 V250 H260 Z M270,250 V260 H280 V250 H270 Z M280,250 V260 H290 V250 H280 Z M290,250 V260 H300 V250 H290 Z M320,250 V260 H330 V250 H320 Z M130,260 V270 H140 V260 H130 Z M140,260 V270 H150 V260 H140 Z M160,260 V270 H170 V260 H160 Z M170,260 V270 H180 V260 H170 Z M180,260 V270 H190 V260 H180 Z M190,260 V270 H200 V260 H190 Z M230,260 V270 H240 V260 H230 Z M250,260 V270 H260 V260 H250 Z M290,260 V270 H300 V260 H290 Z M10,270 V280 H20 V270 H10 Z M20,270 V280 H30 V270 H20 Z M30,270 V280 H40 V270 H30 Z M40,270 V280 H50 V270 H40 Z M50,270 V280 H60 V270 H50 Z M60,270 V280 H70 V270 H60 Z M70,270 V280 H80 V270 H70 Z M100,270 V280 H110 V270 H100 Z M110,270 V280 H120 V270 H110 Z M150,270 V280 H160 V270 H150 Z M160,270 V280 H170 V270 H160 Z M170,270 V280 H180 V270 H170 Z M180,270 V280 H190 V270 H180 Z M200,270 V280 H210 V270 H200 Z M220,270 V280 H230 V270 H220 Z M230,270 V280 H240 V270 H230 Z M240,270 V280 H250 V270 H240 Z M250,270 V280 H260 V270 H250 Z M270,270 V280 H280 V270 H270 Z M290,270 V280 H300 V270 H290 Z M310,270 V280 H320 V270 H310 Z M10,280 V290 H20 V280 H10 Z M70,280 V290 H80 V280 H70 Z M100,280 V290 H110 V280 H100 Z M110,280 V290 H120 V280 H110 Z M120,280 V290 H130 V280 H120 Z M130,280 V290 H140 V280 H130 Z M140,280 V290 H150 V280 H140 Z M160,280 V290 H170 V280 H160 Z M190,280 V290 H200 V280 H190 Z M210,280 V290 H220 V280 H210 Z M230,280 V290 H240 V280 H230 Z M250,280 V290 H260 V280 H250 Z M290,280 V290 H300 V280 H290 Z M300,280 V290 H310 V280 H300 Z M310,280 V290 H320 V280 H310 Z M320,280 V290 H330 V280 H320 Z M10,290 V300 H20 V290 H10 Z M30,290 V300 H40 V290 H30 Z M40,290 V300 H50 V290 H40 Z M50,290 V300 H60 V290 H50 Z M70,290 V300 H80 V290 H70 Z M110,290 V300 H120 V290 H110 Z M130,290 V300 H140 V290 H130 Z M160,290 V300 H170 V290 H160 Z M170,290 V300 H180 V290 H170 Z M180,290 V300 H190 V290 H180 Z M190,290 V300 H200 V290 H190 Z M200,290 V300 H210 V290 H200 Z M250,290 V300 H260 V290 H250 Z M260,290 V300 H270 V290 H260 Z M270,290 V300 H280 V290 H270 Z M280,290 V300 H290 V290 H280 Z M290,290 V300 H300 V290 H290 Z M320,290 V300 H330 V290 H320 Z M330,290 V300 H340 V290 H330 Z M10,300 V310 H20 V300 H10 Z M30,300 V310 H40 V300 H30 Z M40,300 V310 H50 V300 H40 Z M50,300 V310 H60 V300 H50 Z M70,300 V310 H80 V300 H70 Z M100,300 V310 H110 V300 H100 Z M110,300 V310 H120 V300 H110 Z M120,300 V310 H130 V300 H120 Z M130,300 V310 H140 V300 H130 Z M150,300 V310 H160 V300 H150 Z M160,300 V310 H170 V300 H160 Z M170,300 V310 H180 V300 H170 Z M180,300 V310 H190 V300 H180 Z M210,300 V310 H220 V300 H210 Z M240,300 V310 H250 V300 H240 Z M260,300 V310 H270 V300 H260 Z M280,300 V310 H290 V300 H280 Z M300,300 V310 H310 V300 H300 Z M10,310 V320 H20 V310 H10 Z M30,310 V320 H40 V310 H30 Z M40,310 V320 H50 V310 H40 Z M50,310 V320 H60 V310 H50 Z M70,310 V320 H80 V310 H70 Z M90,310 V320 H100 V310 H90 Z M100,310 V320 H110 V310 H100 Z M150,310 V320 H160 V310 H150 Z M160,310 V320 H170 V310 H160 Z M170,310 V320 H180 V310 H170 Z M190,310 V320 H200 V310 H190 Z M210,310 V320 H220 V310 H210 Z M220,310 V320 H230 V310 H220 Z M280,310 V320 H290 V310 H280 Z M290,310 V320 H300 V310 H290 Z M300,310 V320 H310 V310 H300 Z M330,310 V320 H340 V310 H330 Z M10,320 V330 H20 V320 H10 Z M70,320 V330 H80 V320 H70 Z M90,320 V330 H100 V320 H90 Z M110,320 V330 H120 V320 H110 Z M120,320 V330 H130 V320 H120 Z M140,320 V330 H150 V320 H140 Z M190,320 V330 H200 V320 H190 Z M200,320 V330 H210 V320 H200 Z M230,320 V330 H240 V320 H230 Z M300,320 V330 H310 V320 H300 Z M10,330 V340 H20 V330 H10 Z M20,330 V340 H30 V330 H20 Z M30,330 V340 H40 V330 H30 Z M40,330 V340 H50 V330 H40 Z M50,330 V340 H60 V330 H50 Z M60,330 V340 H70 V330 H60 Z M70,330 V340 H80 V330 H70 Z M100,330 V340 H110 V330 H100 Z M110,330 V340 H120 V330 H110 Z M120,330 V340 H130 V330 H120 Z M180,330 V340 H190 V330 H180 Z M210,330 V340 H220 V330 H210 Z M220,330 V340 H230 V330 H220 Z M230,330 V340 H240 V330 H230 Z M240,330 V340 H250 V330 H240 Z M280,330 V340 H290 V330 H280 Z M290,330 V340 H300 V330 H290 Z M300,330 V340 H310 V330 H300 Z M320,330 V340 H330 V330 H320 Z "></path></svg><circle fill="#FFD009" stroke-width="6px" stroke="#000" cx="175" cy="175" r="65.75"></circle><svg x="117.25" y="117.25" width="115.5" height="115.5" viewBox="0 0 24 24" fill="#000"><path d="M12 0c-6.626 0-12 5.373-12 12 0 5.302 3.438 9.8 8.207 11.387.599.111.793-.261.793-.577v-2.234c-3.338.726-4.033-1.416-4.033-1.416-.546-1.387-1.333-1.756-1.333-1.756-1.089-.745.083-.729.083-.729 1.205.084 1.839 1.237 1.839 1.237 1.07 1.834 2.807 1.304 3.492.997.107-.775.418-1.305.762-1.604-2.665-.305-5.467-1.334-5.467-5.931 0-1.311.469-2.381 1.236-3.221-.124-.303-.535-1.524.117-3.176 0 0 1.008-.322 3.301 1.23.957-.266 1.983-.399 3.003-.404 1.02.005 2.047.138 3.006.404 2.291-1.552 3.297-1.23 3.297-1.23.653 1.653.242 2.874.118 3.176.77.84 1.235 1.911 1.235 3.221 0 4.609-2.807 5.624-5.479 5.921.43.372.823 1.102.823 2.222v3.293c0 .319.192.694.801.576 4.765-1.589 8.199-6.086 8.199-11.386 0-6.627-5.373-12-12-12z"></path></svg></svg>