<svg width="350" height="350" version="1.1" xmlns="http://www.w3.org/2000/svg" xmlns:xlink="http://www.w3.org/1999/xlink"><svg><rect x="0" y="0" width="350" height="350" style="fill:#fff;shape-rendering:crispEdges;"></rect><path x="0" y="0" style="fill:#000;shape-rendering:crispEdges;" d="M8.97,8.97 V17.95 H17.95 V8.97 H8.97 Z M17.95,8.97 V17.95 H26.92 V8.97 H17.95 Z M26.92,8.97 V17.95 H35.90 V8.97 H26.92 Z M35.90,8.97 V17.95 H44.87 V8.97 H35.90 Z M44.87,8.97 V17.95 H53.85 V8.97 H44.87 Z M53.85,8.97 V17.95 H62.82 V8.97 H53.85 Z M62.82,8.97 V17.95 H71.79 V8.97 H62.82 Z M89.74,8.97 V17.95 H98.72 V8.97 H89.74 Z M107.69,8.97 V17.95 H116.67 V8.97 H107.69 Z M143.59,8.97 V17.95 H152.56 V8.97 H143.59 Z M152.56,8.97 V17.95 H161.54 V8.97 H152.56 Z M161.54,8.97 V17.95 H170.51 V8.97 H161.54 Z M170.51,8.97 V17.95 H179.49 V8.97 H170.51 Z M179.49,8.97 V17.95 H188.46 V8.97 H179.49 Z M188.46,8.97 V17.95 H197.44 V8.97 H188.46 Z M206.41,8.97 V17.95 H215.38 V8.97 H206.41 Z M233.33,8.97 V17.95 H242.31 V8.97 H233.33 Z M242.31,8.97 V17.95 H251.28 V8.97 H242.31 Z M251.28,8.97 V17.95 H260.26 V8.97 H251.28 Z M260.26,8.97 V17.95 H269.23 V8.97 H260.26 Z M278.21,8.97 V17.95 H287.18 V8.97 H278.21 Z M287.18,8.97 V17.95 H296.15 V8.97 H287.18 Z M296.15,8.97 V17.95 H305.13 V8.97 H296.15 Z M305.13,8.97 V17.95 H314.10 V8.97 H305.13 Z M314.10,8.97 V17.95 H323.08 V8.97 H314.10 Z M323.08,8.97 V17.95 H332.05 V8.97 H323.08 Z M332.05,8.97 V17.95 H341.03 V8.97 H332.05 Z M8.97,17.95 V26.92 H17.95 V17.95 H8.97 Z M62.82,17.95 V26.92 H71.79 V17.95 H62.82 Z M80.77,17.95 V26.92 H89.74 V17.95 H80.77 Z M89.74,17.95 V26.92 H98.72 V17.95 H89.74 Z M98.72,17.95 V26.92 H107.69 V17.95 H98.72 Z M107.69,17.95 V26.92 H116.67 V17.95 H107.69 Z M143.59,17.95 V26.92 H152.56 V17.95 H143.59 Z M161.54,17.95 V26.92 H170.51 V17.95 H161.54 Z M170.51,17.95 V26.92 H179.49 V17.95 H170.51 Z M206.41,17.95 V26.92 H215.38 V17.95 H206.41 Z M242.31,17.95 V26.92 H251.28 V17.95 H242.31 Z M278.21,17.95 V26.92 H287.18 V17.95 H278.21 Z M332.05,17.95 V26.92 H341.03 V17.95 H332.05 Z M8.97,26.92 V35.90 H17.95 V26.92 H8.97 Z M26.92,26.92 V35.90 H35.90 V26.92 H26.92 Z M35.90,26.92 V35.90 H44.87 V26.92 H35.90 Z M44.87,26.92 V35.90 H53.85 V26.92 H44.87 Z M62.82,26.92 V35.90 H71.79 V26.92 H62.82 Z M89.74,26.92 V35.90 H98.72 V26.92 H89.74 Z M107.69,26.92 V35.90 H116.67 V26.92 H107.69 Z M116.67,26.92 V35.90 H125.64 V26.92 H116.67 Z M125.64,26.92 V35.90 H134.62 V26.92 H125.64 Z M143.59,26.92 V35.90 H152.56 V26.92 H143.59 Z M152.56,26.92 V35.90 H161.54 V26.92 H152.56 Z M161.54,26.92 V35.90 H170.51 V26.92 H161.54 Z M188.46,26.92 V35.90 H197.44 V26.92 H188.46 Z M224.36,26.92 V35.90 H233.33 V26.92 H224.36 Z M233.33,26.92 V35.90 H242.31 V26.92 H233.33 Z M251.28,26.92 V35.90 H260.26 V26.92 H251.28 Z M260.26,26.92 V35.90 H269.23 V26.92 H260.26 Z M278.21,26.92 V35.90 H287.18 V26.92 H278.21 Z M296.15,26.92 V35.90 H305.13 V26.92 H296.15 Z M305.13,26.92 V35.90 H314.10 V26.92 H305.13 Z M314.10,26.92 V35.90 H323.08 V26.92 H314.10 Z M332.05,26.92 V35.90 H341.03 V26.92 H332.05 Z M8.97,35.90 V44.87 H17.95 V35.90 H8.97 Z M26.92,35.90 V44.87 H35.90 V35.90 H26.92 Z M35.90,35.90 V44.87 H44.87 V35.90 H35.90 Z M44.87,35.90 V44.87 H53.85 V35.90 H44.87 Z M62.82,35.90 V44.87 H71.79 V35.90 H62.82 Z M80.77,35.90 V44.87 H89.74 V35.90 H80.77 Z M98.72,35.90 V44.87 H107.69 V35.90 H98.72 Z M107.69,35.90 V44.87 H116.67 V35.90 H107.69 Z M116.67,35.90 V44.87 H125.64 V35.90 H116.67 Z M134.62,35.90 V44.87 H143.59 V35.90 H134.62 Z M143.59,35.90 V44.87 H152.56 V35.90 H143.59 Z M161.54,35.90 V44.87 H170.51 V35.90 H161.54 Z M170.51,35.90 V44.87 H179.49 V35.90 H170.51 Z M179.49,35.90 V44.87 H188.46 V35.90 H179.49 Z M224.36,35.90 V44.87 H233.33 V35.90 H224.36 Z M233.33,35.90 V44.87 H242.31 V35.90 H233.33 Z M260.26,35.90 V44.87 H269.23 V35.90 H260.26 Z M278.21,35.90 V44.87 H287.18 V35.90 H278.21 Z M296.15,35.90 V44.87 H305.13 V35.90 H296.15 Z M305.13,35.90 V44.87 H314.10 V35.90 H305.13 Z M314.10,35.90 V44.87 H323.08 V35.90 H314.10 Z M332.05,35.90 V44.87 H341.03 V35.90 H332.05 Z M8.97,44.87 V53.85 H17.95 V44.87 H8.97 Z M26.92,44.87 V53.85 H35.90 V44.87 H26.92 Z M35.90,44.87 V53.85 H44.87 V44.87 H35.90 Z M44.87,44.87 V53.85 H53.85 V44.87 H44.87 Z M62.82,44.87 V53.85 H71.79 V44.87 H62.82 Z M80.77,44.87 V53.85 H89.74 V44.87 H80.77 Z M89.74,44.87 V53.85 H98.72 V44.87 H89.74 Z M98.72,44.87 V53.85 H107.69 V44.87 H98.72 Z M116.67,44.87 V53.85 H125.64 V44.87 H116.67 Z M134.62,44.87 V53.85 H143.59 V44.87 H134.62 Z M143.59,44.87 V53.85 H152.56 V44.87 H143.59 Z M179.49,44.87 V53.85 H188.46 V44.87 H179.49 Z M188.46,44.87 V53.85 H197.44 V44.87 H188.46 Z M224.36,44.87 V53.85 H233.33 V44.87 H224.36 Z M251.28,44.87 V53.85 H260.26 V44.87 H251.28 Z M278.21,44.87 V53.85 H287.18 V44.87 H278.21 Z M296.15,44.87 V53.85 H305.13 V44.87 H296.15 Z M305.13,44.87 V53.85 H314.10 V44.87 H305.13 Z M314.10,44.87 V53.85 H323.08 V44.87 H314.10 Z M332.05,44.87 V53.85 H341.03 V44.87 H332.05 Z M8.97,53.85 V62.82 H17.95 V53.85 H8.97 Z M62.82,53.85 V62.82 H71.79 V53.85 H62.82 Z M80.77,53.85 V62.82 H89.74 V53.85 H80.77 Z M89.74,53.85 V62.82 H98.72 V53.85 H89.74 Z M98.72,53.85 V62.82 H107.69 V53.85 H98.72 Z M125.64,53.85 V62.82 H134.62 V53.85 H125.64 Z M134.62,53.85 V62.82 H143.59 V53.85 H134.62 Z M143.59,53.85 V62.82 H152.56 V53.85 H143.59 Z M152.56,53.85 V62.82 H161.54 V53.85 H152.56 Z M170.51,53.85 V62.82 H179.49 V53.85 H170.51 Z M179.49,53.85 V62.82 H188.46 V53.85 H179.49 Z M206.41,53.85 V62.82 H215.38 V53.85 H206.41 Z M242.31,53.85 V62.82 H251.28 V53.85 H242.31 Z M251.28,53.85 V62.82 H260.26 V53.85 H251.28 Z M260.26,53.85 V62.82 H269.23 V53.85 H260.26 Z M278.21,53.85 V62.82 H287.18 V53.85 H278.21 Z M332.05,53.85 V62.82 H341.03 V53.85 H332.05 Z M8.97,62.82 V71.79 H17.95 V62.82 H8.97 Z M17.95,62.82 V71.79 H26.92 V62.82 H17.95 Z M26.92,62.82 V71.79 H35.90 V62.82 H26.92 Z M35.90,62.82 V71.79 H44.87 V62.82 H35.90 Z M44.87,62.82 V71.79 H53.85 V62.82 H44.87 Z M53.85,62.82 V71.79 H62.82 V62.82 H53.85 Z M62.82,62.82 V71.79 H71.79 V62.82 H62.82 Z M80.77,62.82 V71.79 H89.74 V62.82 H80.77 Z M98.72,62.82 V71.79 H107.69 V62.82 H98.72 Z M116.67,62.82 V71.79 H125.64 V62.82 H116.67 Z M134.62,62.82 V71.79 H143.59 V62.82 H134.62 Z M152.56,62.82 V71.79 H161.54 V62.82 H152.56 Z M170.51,62.82 V71.79 H179.49 V62.82 H170.51 Z M188.46,62.82 V71.79 H197.44 V62.82 H188.46 Z M206.41,62.82 V71.79 H215.38 V62.82 H206.41 Z M224.36,62.82 V71.79 H233.33 V62.82 H224.36 Z M242.31,62.82 V71.79 H251.28 V62.82 H242.31 Z M260.26,62.82 V71.79 H269.23 V62.82 H260.26 Z M278.21,62.82 V71.79 H287.18 V62.82 H278.21 Z M287.18,62.82 V71.79 H296.15 V62.82 H287.18 Z M296.15,62.82 V71.79 H305.13 V62.82 H296.15 Z M305.13,62.82 V71.79 H314.10 V62.82 H305.13 Z M314.10,62.82 V71.79 H323.08 V62.82 H314.10 Z M323.08,62.82 V71.79 H332.05 V62.82 H323.08 Z M332.05,62.82 V71.79 H341.03 V62.82 H332.05 Z M89.74,71.79 V80.77 H98.72 V71.79 H89.74 Z M98.72,71.79 V80.77 H107.69 V71.79 H98.72 Z M107.69,71.79 V80.77 H116.67 V71.79 H107.69 Z M134.62,71.79 V80.77 H143.59 V71.79 H134.62 Z M143.59,71.79 V80.77 H152.56 V71.79 H143.59 Z M179.49,71.79 V80.77 H188.46 V71.79 H179.49 Z M206.41,71.79 V80.77 H215.38 V71.79 H206.41 Z M17.95,80.77 V89.74 H26.92 V80.77 H17.95 Z M35.90,80.77 V89.74 H44.87 V80.77 H35.90 Z M44.87,80.77 V89.74 H53.85 V80.77 H44.87 Z M62.82,80.77 V89.74 H71.79 V80.77 H62.82 Z M71.79,80.77 V89.74 H80.77 V80.77 H71.79 Z M80.77,80.77 V89.74 H89.74 V80.77 H80.77 Z M98.72,80.77 V89.74 H107.69 V80.77 H98.72 Z M125.64,80.77 V89.74 H134.62 V80.77 H125.64 Z M134.62,80.77 V89.74 H143.59 V80.77 H134.62 Z M143.59,80.77 V89.74 H152.56 V80.77 H143.59 Z M152.56,80.77 V89.74 H161.54 V80.77 H152.56 Z M161.54,80.77 V89.74 H170.51 V80.77 H161.54 Z M188.46,80.77 V89.74 H197.44 V80.77 H188.46 Z M197.44,80.77 V89.74 H206.41 V80.77 H197.44 Z M233.33,80.77 V89.74 H242.31 V80.77 H233.33 Z M242.31,80.77 V89.74 H251.28 V80.77 H242.31 Z M269.23,80.77 V89.74 H278.21 V80.77 H269.23 Z M287.18,80.77 V89.74 H296.15 V80.77 H287.18 Z M296.15,80.77 V89.74 H305.13 V80.77 H296.15 Z M305.13,80.77 V89.74 H314.10 V80.77 H305.13 Z M323.08,80.77 V89.74 H332.05 V80.77 H323.08 Z M17.95,89.74 V98.72 H26.92 V89.74 H17.95 Z M35.90,89.74 V98.72 H44.87 V89.74 H35.90 Z M44.87,89.74 V98.72 H53.85 V89.74 H44.87 Z M80.77,89.74 V98.72 H89.74 V89.74 H80.77 Z M89.74,89.74 V98.72 H98.72 V89.74 H89.74 Z M107.69,89.74 V98.72 H116.67 V89.74 H107.69 Z M116.67,89.74 V98.72 H125.64 V89.74 H116.67 Z M134.62,89.74 V98.72 H143.59 V89.74 H134.62 Z M152.56,89.74 V98.72 H161.54 V89.74 H152.56 Z M161.54,89.74 V98.72 H170.51 V89.74 H161.54 Z M170.51,89.74 V98.72 H179.49 V89.74 H170.51 Z M179.49,89.74 V98.72 H188.46 V89.74 H179.49 Z M197.44,89.74 V98.72 H206.41 V89.74 H197.44 Z M206.41,89.74 V98.72 H215.38 V89.74 H206.41 Z M215.38,89.74 V98.72 H224.36 V89.74 H215.38 Z M242.31,89.74 V98.72 H251.28 V89.74 H242.31 Z M260.26,89.74 V98.72 H269.23 V89.74 H260.26 Z M269.23,89.74 V98.72 H278.21 V89.74 H269.23 Z M296.15,89.74 V98.72 H305.13 V89.74 H296.15 Z M314.10,89.74 V98.72 H323.08 V89.74 H314.10 Z M17.95,98.72 V107.69 H26.92 V98.72 H17.95 Z M53.85,98.72 V107.69 H62.82 V98.72 H53.85 Z M62.82,98.72 V107.69 H71.79 V98.72 H62.82 Z M80.77,98.72 V107.69 H89.74 V98.72 H80.77 Z M89.74,98.72 V107.69 H98.72 V98.72 H89.74 Z M107.69,98.72 V107.69 H116.67 V98.72 H107.69 Z M134.62,98.72 V107.69 H143.59 V98.72 H134.62 Z M143.59,98.72 V107.69 H152.56 V98.72 H143.59 Z M152.56,98.72 V107.69 H161.54 V98.72 H152.56 Z M161.54,98.72 V107.69 H170.51 V98.72 H161.54 Z M170.51,98.72 V107.69 H179.49 V98.72 H170.51 Z M197.44,98.72 V107.69 H206.41 V98.72 H197.44 Z M215.38,98.72 V107.69 H224.36 V98.72 H215.38 Z M233.33,98.72 V107.69 H242.31 V98.72 H233.33 Z M251.28,98.72 V107.69 H260.26 V98.72 H251.28 Z M278.21,98.72 V107.69 H287.18 V98.72 H278.21 Z M287.18,98.72 V107.69 H296.15 V98.72 H287.18 Z M296.15,98.72 V107.69 H305.13 V98.72 H296.15 Z M305.13,98.72 V107.69 H314.10 V98.72 H305.13 Z M314.10,98.72 V107.69 H323.08 V98.72 H314.10 Z M323.08,98.72 V107.69 H332.05 V98.72 H323.08 Z M17.95,107.69 V116.67 H26.92 V107.69 H17.95 Z M35.90,107.69 V116.67 H44.87 V107.69 H35.90 Z M44.87,107.69 V116.67 H53.85 V107.69 H44.87 Z M71.79,107.69 V116.67 H80.77 V107.69 H71.79 Z M80.77,107.69 V116.67 H89.74 V107.69 H80.77 Z M89.74,107.69 V116.67 H98.72 V107.69 H89.74 Z M98.72,107.69 V116.67 H107.69 V107.69 H98.72 Z M107.69,107.69 V116.67 H116.67 V107.69 H107.69 Z M125.64,107.69 V116.67 H134.62 V107.69 H125.64 Z M134.62,107.69 V116.67 H143.59 V107.69 H134.62 Z M143.59,107.69 V116.67 H152.56 V107.69 H143.59 Z M161.54,107.69 V116.67 H170.51 V107.69 H161.54 Z M170.51,107.69 V116.67 H179.49 V107.69 H170.51 Z M188.46,107.69 V116.67 H197.44 V107.69 H188.46 Z M233.33,107.69 V116.67 H242.31 V107.69 H233.33 Z M242.31,107.69 V116.67 H251.28 V107.69 H242.31 Z M251.28,107.69 V116.67 H260.26 V107.69 H251.28 Z M260.26,107.69 V116.67 H269.23 V107.69 H260.26 Z M287.18,107.69 V116.67 H296.15 V107.69 H287.18 Z M296.15,107.69 V116.67 H305.13 V107.69 H296.15 Z M305.13,107.69 V116.67 H314.10 V107.69 H305.13 Z M314.10,107.69 V116.67 H323.08 V107.69 H314.10 Z M323.08,107.69 V116.67 H332.05 V107.69 H323.08 Z M332.05,107.69 V116.67 H341.03 V107.69 H332.05 Z M17.95,116.67 V125.64 H26.92 V116.67 H17.95 Z M35.90,116.67 V125.64 H44.87 V116.67 H35.90 Z M62.82,116.67 V125.64 H71.79 V116.67 H62.82 Z M98.72,116.67 V125.64 H107.69 V116.67 H98.72 Z M116.67,116.67 V125.64 H125.64 V116.67 H116.67 Z M143.59,116.67 V125.64 H152.56 V116.67 H143.59 Z M152.56,116.67 V125.64 H161.54 V116.67 H152.56 Z M161.54,116.67 V125.64 H170.51 V116.67 H161.54 Z M170.51,116.67 V125.64 H179.49 V116.67 H170.51 Z M179.49,116.67 V125.64 H188.46 V116.67 H179.49 Z M188.46,116.67 V125.64 H197.44 V116.67 H188.46 Z M197.44,116.67 V125.64 H206.41 V116.67 H197.44 Z M206.41,116.67 V125.64 H215.38 V116.67 H206.41 Z M215.38,116.67 V125.64 H224.36 V116.67 H215.38 Z M224.36,116.67 V125.64 H233.33 V116.67 H224.36 Z M242.31,116.67 V125.64 H251.28 V116.67 H242.31 Z M287.18,116.67 V125.64 H296.15 V116.67 H287.18 Z M323.08,116.67 V125.64 H332.05 V116.67 H323.08 Z M35.90,125.64 V134.62 H44.87 V125.64 H35.90 Z M44.87,125.64 V134.62 H53.85 V125.64 H44.87 Z M107.69,125.64 V134.62 H116.67 V125.64 H107.69 Z M125.64,125.64 V134.62 H134.62 V125.64 H125.64 Z M134.62,125.64 V134.62 H143.59 V125.64 H134.62 Z M170.51,125.64 V134.62 H179.49 V125.64 H170.51 Z M179.49,125.64 V134.62 H188.46 V125.64 H179.49 Z M188.46,125.64 V134.62 H197.44 V125.64 H188.46 Z M206.41,125.64 V134.62 H215.38 V125.64 H206.41 Z M233.33,125.64 V134.62 H242.31 V125.64 H233.33 Z M242.31,125.64 V134.62 H251.28 V125.64 H242.31 Z M251.28,125.64 V134.62 H260.26 V125.64 H251.28 Z M269.23,125.64 V134.62 H278.21 V125.64 H269.23 Z M287.18,125.64 V134.62 H296.15 V125.64 H287.18 Z M296.15,125.64 V134.62 H305.13 V125.64 H296.15 Z M305.13,125.64 V134.62 H314.10 V125.64 H305.13 Z M314.10,125.64 V134.62 H323.08 V125.64 H314.10 Z M332.05,125.64 V134.62 H341.03 V125.64 H332.05 Z M8.97,134.62 V143.59 H17.95 V134.62 H8.97 Z M26.92,134.62 V143.59 H35.90 V134.62 H26.92 Z M44.87,134.62 V143.59 H53.85 V134.62 H44.87 Z M62.82,134.62 V143.59 H71.79 V134.62 H62.82 Z M107.69,134.62 V143.59 H116.67 V134.62 H107.69 Z M134.62,134.62 V143.59 H143.59 V134.62 H134.62 Z M161.54,134.62 V143.59 H170.51 V134.62 H161.54 Z M170.51,134.62 V143.59 H179.49 V134.62 H170.51 Z M197.44,134.62 V143.59 H206.41 V134.62 H197.44 Z M215.38,134.62 V143.59 H224.36 V134.62 H215.38 Z M224.36,134.62 V143.59 H233.33 V134.62 H224.36 Z M242.31,134.62 V143.59 H251.28 V134.62 H242.31 Z M278.21,134.62 V143.59 H287.18 V134.62 H278.21 Z M287.18,134.62 V143.59 H296.15 V134.62 H287.18 Z M296.15,134.62 V143.59 H305.13 V134.62 H296.15 Z M8.97,143.59 V152.56 H17.95 V143.59 H8.97 Z M17.95,143.59 V152.56 H26.92 V143.59 H17.95 Z M44.87,143.59 V152.56 H53.85 V143.59 H44.87 Z M53.85,143.59 V152.56 H62.82 V143.59 H53.85 Z M80.77,143.59 V152.56 H89.74 V143.59 H80.77 Z M98.72,143.59 V152.56 H107.69 V143.59 H98.72 Z M107.69,143.59 V152.56 H116.67 V143.59 H107.69 Z M116.67,143.59 V152.56 H125.64 V143.59 H116.67 Z M134.62,143.59 V152.56 H143.59 V143.59 H134.62 Z M143.59,143.59 V152.56 H152.56 V143.59 H143.59 Z M161.54,143.59 V152.56 H170.51 V143.59 H161.54 Z M197.44,143.59 V152.56 H206.41 V143.59 H197.44 Z M224.36,143.59 V152.56 H233.33 V143.59 H224.36 Z M251.28,143.59 V152.56 H260.26 V143.59 H251.28 Z M269.23,143.59 V152.56 H278.21 V143.59 H269.23 Z M287.18,143.59 V152.56 H296.15 V143.59 H287.18 Z M296.15,143.59 V152.56 H305.13 V143.59 H296.15 Z M314.10,143.59 V152.56 H323.08 V143.59 H314.10 Z M8.97,152.56 V161.54 H17.95 V152.56 H8.97 Z M17.95,152.56 V161.54 H26.92 V152.56 H17.95 Z M26.92,152.56 V161.54 H35.90 V152.56 H26.92 Z M35.90,152.56 V161.54 H44.87 V152.56 H35.90 Z M44.87,152.56 V161.54 H53.85 V152.56 H44.87 Z M62.82,152.56 V161.54 H71.79 V152.56 H62.82 Z M71.79,152.56 V161.54 H80.77 V152.56 H71.79 Z M107.69,152.56 V161.54 H116.67 V152.56 H107.69 Z M116.67,152.56 V161.54 H125.64 V152.56 H116.67 Z M143.59,152.56 V161.54 H152.56 V152.56 H143.59 Z M152.56,152.56 V161.54 H161.54 V152.56 H152.56 Z M179.49,152.56 V161.54 H188.46 V152.56 H179.49 Z M197.44,152.56 V161.54 H206.41 V152.56 H197.44 Z M206.41,152.56 V161.54 H215.38 V152.56 H206.41 Z M215.38,152.56 V161.54 H224.36 V152.56 H215.38 Z M224.36,152.56 V161.54 H233.33 V152.56 H224.36 Z M242.31,152.56 V161.54 H251.28 V152.56 H242.31 Z M278.21,152.56 V161.54 H287.18 V152.56 H278.21 Z M287.18,152.56 V161.54 H296.15 V152.56 H287.18 Z M305.13,152.56 V161.54 H314.10 V152.56 H305.13 Z M332.05,152.56 V161.54 H341.03 V152.56 H332.05 Z M17.95,161.54 V170.51 H26.92 V161.54 H17.95 Z M44.87,161.54 V170.51 H53.85 V161.54 H44.87 Z M80.77,161.54 V170.51 H89.74 V161.54 H80.77 Z M89.74,161.54 V170.51 H98.72 V161.54 H89.74 Z M125.64,161.54 V170.51 H134.62 V161.54 H125.64 Z M143.59,161.54 V170.51 H152.56 V161.54 H143.59 Z M161.54,161.54 V170.51 H170.51 V161.54 H161.54 Z M215.38,161.54 V170.51 H224.36 V161.54 H215.38 Z M233.33,161.54 V170.51 H242.31 V161.54 H233.33 Z M251.28,161.54 V170.51 H260.26 V161.54 H251.28 Z M269.23,161.54 V170.51 H278.21 V161.54 H269.23 Z M278.21,161.54 V170.51 H287.18 V161.54 H278.21 Z M287.18,161.54 V170.51 H296.15 V161.54 H287.18 Z M296.15,161.54 V170.51 H305.13 V161.54 H296.15 Z M305.13,161.54 V170.51 H314.10 V161.54 H305.13 Z M323.08,161.54 V170.51 H332.05 V161.54 H323.08 Z M332.05,161.54 V170.51 H341.03 V161.54 H332.05 Z M26.92,170.51 V179.49 H35.90 V170.51 H26.92 Z M35.90,170.51 V179.49 H44.87 V170.51 H35.90 Z M53.85,170.51 V179.49 H62.82 V170.51 H53.85 Z M62.82,170.51 V179.49 H71.79 V170.51 H62.82 Z M71.79,170.51 V179.49 H80.77 V170.51 H71.79 Z M89.74,170.51 V179.49 H98.72 V170.51 H89.74 Z M98.72,170.51 V179.49 H107.69 V170.51 H98.72 Z M134.62,170.51 V179.49 H143.59 V170.51 H134.62 Z M152.56,170.51 V179.49 H161.54 V170.51 H152.56 Z M161.54,170.51 V179.49 H170.51 V170.51 H161.54 Z M179.49,170.51 V179.49 H188.46 V170.51 H179.49 Z M224.36,170.51 V179.49 H233.33 V170.51 H224.36 Z M251.28,170.51 V179.49 H260.26 V170.51 H251.28 Z M287.18,170.51 V179.49 H296.15 V170.51 H287.18 Z M305.13,170.51 V179.49 H314.10 V170.51 H305.13 Z M314.10,170.51 V179.49 H323.08 V170.51 H314.10 Z M323.08,170.51 V179.49 H332.05 V170.51 H323.08 Z M332.05,170.51 V179.49 H341.03 V170.51 H332.05 Z M44.87,179.49 V188.46 H53.85 V179.49 H44.87 Z M53.85,179.49 V188.46 H62.82 V179.49 H53.85 Z M89.74,179.49 V188.46 H98.72 V179.49 H89.74 Z M98.72,179.49 V188.46 H107.69 V179.49 H98.72 Z M107.69,179.49 V188.46 H116.67 V179.49 H107.69 Z M116.67,179.49 V188.46 H125.64 V179.49 H116.67 Z M125.64,179.49 V188.46 H134.62 V179.49 H125.64 Z M170.51,179.49 V188.46 H179.49 V179.49 H170.51 Z M188.46,179.49 V188.46 H197.44 V179.49 H188.46 Z M224.36,179.49 V188.46 H233.33 V179.49 H224.36 Z M251.28,179.49 V188.46 H260.26 V179.49 H251.28 Z M269.23,179.49 V188.46 H278.21 V179.49 H269.23 Z M296.15,179.49 V188.46 H305.13 V179.49 H296.15 Z M314.10,179.49 V188.46 H323.08 V179.49 H314.10 Z M323.08,179.49 V188.46 H332.05 V179.49 H323.08 Z M17.95,188.46 V197.44 H26.92 V188.46 H17.95 Z M35.90,188.46 V197.44 H44.87 V188.46 H35.90 Z M44.87,188.46 V197.44 H53.85 V188.46 H44.87 Z M53.85,188.46 V197.44 H62.82 V188.46 H53.85 Z M62.82,188.46 V197.44 H71.79 V188.46 H62.82 Z M71.79,188.46 V197.44 H80.77 V188.46 H71.79 Z M89.74,188.46 V197.44 H98.72 V188.46 H89.74 Z M107.69,188.46 V197.44 H116.67 V188.46 H107.69 Z M116.67,188.46 V197.44 H125.64 V188.46 H116.67 Z M125.64,188.46 V197.44 H134.62 V188.46 H125.64 Z M134.62,188.46 V197.44 H143.59 V188.46 H134.62 Z M215.38,188.46 V197.44 H224.36 V188.46 H215.38 Z M224.36,188.46 V197.44 H233.33 V188.46 H224.36 Z M242.31,188.46 V197.44 H251.28 V188.46 H242.31 Z M260.26,188.46 V197.44 H269.23 V188.46 H260.26 Z M269.23,188.46 V197.44 H278.21 V188.46 H269.23 Z M287.18,188.46 V197.44 H296.15 V188.46 H287.18 Z M314.10,188.46 V197.44 H323.08 V188.46 H314.10 Z M323.08,188.46 V197.44 H332.05 V188.46 H323.08 Z M332.05,188.46 V197.44 H341.03 V188.46 H332.05 Z M26.92,197.44 V206.41 H35.90 V197.44 H26.92 Z M35.90,197.44 V206.41 H44.87 V197.44 H35.90 Z M44.87,197.44 V206.41 H53.85 V197.44 H44.87 Z M98.72,197.44 V206.41 H107.69 V197.44 H98.72 Z M125.64,197.44 V206.41 H134.62 V197.44 H125.64 Z M143.59,197.44 V206.41 H152.56 V197.44 H143.59 Z M152.56,197.44 V206.41 H161.54 V197.44 H152.56 Z M170.51,197.44 V206.41 H179.49 V197.44 H170.51 Z M197.44,197.44 V206.41 H206.41 V197.44 H197.44 Z M233.33,197.44 V206.41 H242.31 V197.44 H233.33 Z M242.31,197.44 V206.41 H251.28 V197.44 H242.31 Z M278.21,197.44 V206.41 H287.18 V197.44 H278.21 Z M296.15,197.44 V206.41 H305.13 V197.44 H296.15 Z M314.10,197.44 V206.41 H323.08 V197.44 H314.10 Z M26.92,206.41 V215.38 H35.90 V206.41 H26.92 Z M44.87,206.41 V215.38 H53.85 V206.41 H44.87 Z M53.85,206.41 V215.38 H62.82 V206.41 H53.85 Z M62.82,206.41 V215.38 H71.79 V206.41 H62.82 Z M71.79,206.41 V215.38 H80.77 V206.41 H71.79 Z M89.74,206.41 V215.38 H98.72 V206.41 H89.74 Z M107.69,206.41 V215.38 H116.67 V206.41 H107.69 Z M125.64,206.41 V215.38 H134.62 V206.41 H125.64 Z M143.59,206.41 V215.38 H152.56 V206.41 H143.59 Z M152.56,206.41 V215.38 H161.54 V206.41 H152.56 Z M161.54,206.41 V215.38 H170.51 V206.41 H161.54 Z M179.49,206.41 V215.38 H188.46 V206.41 H179.49 Z M197.44,206.41 V215.38 H206.41 V206.41 H197.44 Z M206.41,206.41 V215.38 H215.38 V206.41 H206.41 Z M215.38,206.41 V215.38 H224.36 V206.41 H215.38 Z M242.31,206.41 V215.38 H251.28 V206.41 H242.31 Z M260.26,206.41 V215.38 H269.23 V206.41 H260.26 Z M278.21,206.41 V215.38 H287.18 V206.41 H278.21 Z M287.18,206.41 V215.38 H296.15 V206.41 H287.18 Z M296.15,206.41 V215.38 H305.13 V206.41 H296.15 Z M314.10,206.41 V215.38 H323.08 V206.41 H314.10 Z M323.08,206.41 V215.38 H332.05 V206.41 H323.08 Z M8.97,215.38 V224.36 H17.95 V215.38 H8.97 Z M44.87,215.38 V224.36 H53.85 V215.38 H44.87 Z M53.85,215.38 V224.36 H62.82 V215.38 H53.85 Z M80.77,215.38 V224.36 H89.74 V215.38 H80.77 Z M89.74,215.38 V224.36 H98.72 V215.38 H89.74 Z M98.72,215.38 V224.36 H107.69 V215.38 H98.72 Z M116.67,215.38 V224.36 H125.64 V215.38 H116.67 Z M125.64,215.38 V224.36 H134.62 V215.38 H125.64 Z M152.56,215.38 V224.36 H161.54 V215.38 H152.56 Z M161.54,215.38 V224.36 H170.51 V215.38 H161.54 Z M179.49,215.38 V224.36 H188.46 V215.38 H179.49 Z M188.46,215.38 V224.36 H197.44 V215.38 H188.46 Z M197.44,215.38 V224.36 H206.41 V215.38 H197.44 Z M206.41,215.38 V224.36 H215.38 V215.38 H206.41 Z M224.36,215.38 V224.36 H233.33 V215.38 H224.36 Z M233.33,215.38 V224.36 H242.31 V215.38 H233.33 Z M251.28,215.38 V224.36 H260.26 V215.38 H251.28 Z M260.26,215.38 V224.36 H269.23 V215.38 H260.26 Z M278.21,215.38 V224.36 H287.18 V215.38 H278.21 Z M296.15,215.38 V224.36 H305.13 V215.38 H296.15 Z M314.10,215.38 V224.36 H323.08 V215.38 H314.10 Z M323.08,215.38 V224.36 H332.05 V215.38 H323.08 Z M332.05,215.38 V224.36 H341.03 V215.38 H332.05 Z M8.97,224.36 V233.33 H17.95 V224.36 H8.97 Z M26.92,224.36 V233.33 H35.90 V224.36 H26.92 Z M62.82,224.36 V233.33 H71.79 V224.36 H62.82 Z M80.77,224.36 V233.33 H89.74 V224.36 H80.77 Z M116.67,224.36 V233.33 H125.64 V224.36 H116.67 Z M134.62,224.36 V233.33 H143.59 V224.36 H134.62 Z M152.56,224.36 V233.33 H161.54 V224.36 H152.56 Z M170.51,224.36 V233.33 H179.49 V224.36 H170.51 Z M188.46,224.36 V233.33 H197.44 V224.36 H188.46 Z M197.44,224.36 V233.33 H206.41 V224.36 H197.44 Z M215.38,224.36 V233.33 H224.36 V224.36 H215.38 Z M224.36,224.36 V233.33 H233.33 V224.36 H224.36 Z M242.31,224.36 V233.33 H251.28 V224.36 H242.31 Z M251.28,224.36 V233.33 H260.26 V224.36 H251.28 Z M287.18,224.36 V233.33 H296.15 V224.36 H287.18 Z M305.13,224.36 V233.33 H314.10 V224.36 H305.13 Z M323.08,224.36 V233.33 H332.05 V224.36 H323.08 Z M17.95,233.33 V242.31 H26.92 V233.33 H17.95 Z M26.92,233.33 V242.31 H35.90 V233.33 H26.92 Z M71.79,233.33 V242.31 H80.77 V233.33 H71.79 Z M80.77,233.33 V242.31 H89.74 V233.33 H80.77 Z M89.74,233.33 V242.31 H98.72 V233.33 H89.74 Z M98.72,233.33 V242.31 H107.69 V233.33 H98.72 Z M125.64,233.33 V242.31 H134.62 V233.33 H125.64 Z M152.56,233.33 V242.31 H161.54 V233.33 H152.56 Z M161.54,233.33 V242.31 H170.51 V233.33 H161.54 Z M170.51,233.33 V242.31 H179.49 V233.33 H170.51 Z M179.49,233.33 V242.31 H188.46 V233.33 H179.49 Z M188.46,233.33 V242.31 H197.44 V233.33 H188.46 Z M197.44,233.33 V242.31 H206.41 V233.33 H197.44 Z M206.41,233.33 V242.31 H215.38 V233.33 H206.41 Z M215.38,233.33 V242.31 H224.36 V233.33 H215.38 Z M224.36,233.33 V242.31 H233.33 V233.33 H224.36 Z M233.33,233.33 V242.31 H242.31 V233.33 H233.33 Z M260.26,233.33 V242.31 H269.23 V233.33 H260.26 Z M269.23,233.33 V242.31 H278.21 V233.33 H269.23 Z M287.18,233.33 V242.31 H296.15 V233.33 H287.18 Z M332.05,233.33 V242.31 H341.03 V233.33 H332.05 Z M17.95,242.31 V251.28 H26.92 V242.31 H17.95 Z M26.92,242.31 V251.28 H35.90 V242.31 H26.92 Z M44.87,242.31 V251.28 H53.85 V242.31 H44.87 Z M62.82,242.31 V251.28 H71.79 V242.31 H62.82 Z M107.69,242.31 V251.28 H116.67 V242.31 H107.69 Z M125.64,242.31 V251.28 H134.62 V242.31 H125.64 Z M143.59,242.31 V251.28 H152.56 V242.31 H143.59 Z M188.46,242.31 V251.28 H197.44 V242.31 H188.46 Z M197.44,242.31 V251.28 H206.41 V242.31 H197.44 Z M233.33,242.31 V251.28 H242.31 V242.31 H233.33 Z M242.31,242.31 V251.28 H251.28 V242.31 H242.31 Z M296.15,242.31 V251.28 H305.13 V242.31 H296.15 Z M314.10,242.31 V251.28 H323.08 V242.31 H314.10 Z M323.08,242.31 V251.28 H332.05 V242.31 H323.08 Z M26.92,251.28 V260.26 H35.90 V251.28 H26.92 Z M71.79,251.28 V260.26 H80.77 V251.28 H71.79 Z M107.69,251.28 V260.26 H116.67 V251.28 H107.69 Z M134.62,251.28 V260.26 H143.59 V251.28 H134.62 Z M143.59,251.28 V260.26 H152.56 V251.28 H143.59 Z M161.54,251.28 V260.26 H170.51 V251.28 H161.54 Z M170.51,251.28 V260.26 H179.49 V251.28 H170.51 Z M188.46,251.28 V260.26 H197.44 V251.28 H188.46 Z M197.44,251.28 V260.26 H206.41 V251.28 H197.44 Z M206.41,251.28 V260.26 H215.38 V251.28 H206.41 Z M215.38,251.28 V260.26 H224.36 V251.28 H215.38 Z M242.31,251.28 V260.26 H251.28 V251.28 H242.31 Z M260.26,251.28 V260.26 H269.23 V251.28 H260.26 Z M296.15,251.28 V260.26 H305.13 V251.28 H296.15 Z M323.08,251.28 V260.26 H332.05 V251.28 H323.08 Z M17.95,260.26 V269.23 H26.92 V260.26 H17.95 Z M35.90,260.26 V269.23 H44.87 V260.26 H35.90 Z M62.82,260.26 V269.23 H71.79 V260.26 H62.82 Z M71.79,260.26 V269.23 H80.77 V260.26 H71.79 Z M80.77,260.26 V269.23 H89.74 V260.26 H80.77 Z M116.67,260.26 V269.23 H125.64 V260.26 H116.67 Z M125.64,260.26 V269.23 H134.62 V260.26 H125.64 Z M170.51,260.26 V269.23 H179.49 V260.26 H170.51 Z M179.49,260.26 V269.23 H188.46 V260.26 H179.49 Z M188.46,260.26 V269.23 H197.44 V260.26 H188.46 Z M197.44,260.26 V269.23 H206.41 V260.26 H197.44 Z M215.38,260.26 V269.23 H224.36 V260.26 H215.38 Z M251.28,260.26 V269.23 H260.26 V260.26 H251.28 Z M260.26,260.26 V269.23 H269.23 V260.26 H260.26 Z M269.23,260.26 V269.23 H278.21 V260.26 H269.23 Z M278.21,260.26 V269.23 H287.18 V260.26 H278.21 Z M287.18,260.26 V269.23 H296.15 V260.26 H287.18 Z M296.15,260.26 V269.23 H305.13 V260.26 H296.15 Z M314.10,260.26 V269.23 H323.08 V260.26 H314.10 Z M332.05,260.26 V269.23 H341.03 V260.26 H332.05 Z M80.77,269.23 V278.21 H89.74 V269.23 H80.77 Z M89.74,269.23 V278.21 H98.72 V269.23 H89.74 Z M98.72,269.23 V278.21 H107.69 V269.23 H98.72 Z M107.69,269.23 V278.21 H116.67 V269.23 H107.69 Z M125.64,269.23 V278.21 H134.62 V269.23 H125.64 Z M134.62,269.23 V278.21 H143.59 V269.23 H134.62 Z M143.59,269.23 V278.21 H152.56 V269.23 H143.59 Z M161.54,269.23 V278.21 H170.51 V269.23 H161.54 Z M179.49,269.23 V278.21 H188.46 V269.23 H179.49 Z M188.46,269.23 V278.21 H197.44 V269.23 H188.46 Z M215.38,269.23 V278.21 H224.36 V269.23 H215.38 Z M251.28,269.23 V278.21 H260.26 V269.23 H251.28 Z M260.26,269.23 V278.21 H269.23 V269.23 H260.26 Z M296.15,269.23 V278.21 H305.13 V269.23 H296.15 Z M323.08,269.23 V278.21 H332.05 V269.23 H323.08 Z M8.97,278.21 V287.18 H17.95 V278.21 H8.97 Z M17.95,278.21 V287.18 H26.92 V278.21 H17.95 Z M26.92,278.21 V287.18 H35.90 V278.21 H26.92 Z M35.90,278.21 V287.18 H44.87 V278.21 H35.90 Z M44.87,278.21 V287.18 H53.85 V278.21 H44.87 Z M53.85,278.21 V287.18 H62.82 V278.21 H53.85 Z M62.82,278.21 V287.18 H71.79 V278.21 H62.82 Z M80.77,278.21 V287.18 H89.74 V278.21 H80.77 Z M89.74,278.21 V287.18 H98.72 V278.21 H89.74 Z M98.72,278.21 V287.18 H107.69 V278.21 H98.72 Z M107.69,278.21 V287.18 H116.67 V278.21 H107.69 Z M116.67,278.21 V287.18 H125.64 V278.21 H116.67 Z M152.56,278.21 V287.18 H161.54 V278.21 H152.56 Z M188.46,278.21 V287.18 H197.44 V278.21 H188.46 Z M233.33,278.21 V287.18 H242.31 V278.21 H233.33 Z M242.31,278.21 V287.18 H251.28 V278.21 H242.31 Z M260.26,278.21 V287.18 H269.23 V278.21 H260.26 Z M278.21,278.21 V287.18 H287.18 V278.21 H278.21 Z M296.15,278.21 V287.18 H305.13 V278.21 H296.15 Z M305.13,278.21 V287.18 H314.10 V278.21 H305.13 Z M332.05,278.21 V287.18 H341.03 V278.21 H332.05 Z M8.97,287.18 V296.15 H17.95 V287.18 H8.97 Z M62.82,287.18 V296.15 H71.79 V287.18 H62.82 Z M98.72,287.18 V296.15 H107.69 V287.18 H98.72 Z M116.67,287.18 V296.15 H125.64 V287.18 H116.67 Z M197.44,287.18 V296.15 H206.41 V287.18 H197.44 Z M215.38,287.18 V296.15 H224.36 V287.18 H215.38 Z M224.36,287.18 V296.15 H233.33 V287.18 H224.36 Z M242.31,287.18 V296.15 H251.28 V287.18 H242.31 Z M251.28,287.18 V296.15 H260.26 V287.18 H251.28 Z M260.26,287.18 V296.15 H269.23 V287.18 H260.26 Z M296.15,287.18 V296.15 H305.13 V287.18 H296.15 Z M314.10,287.18 V296.15 H323.08 V287.18 H314.10 Z M8.97,296.15 V305.13 H17.95 V296.15 H8.97 Z M26.92,296.15 V305.13 H35.90 V296.15 H26.92 Z M35.90,296.15 V305.13 H44.87 V296.15 H35.90 Z M44.87,296.15 V305.13 H53.85 V296.15 H44.87 Z M62.82,296.15 V305.13 H71.79 V296.15 H62.82 Z M80.77,296.15 V305.13 H89.74 V296.15 H80.77 Z M89.74,296.15 V305.13 H98.72 V296.15 H89.74 Z M98.72,296.15 V305.13 H107.69 V296.15 H98.72 Z M125.64,296.15 V305.13 H134.62 V296.15 H125.64 Z M170.51,296.15 V305.13 H179.49 V296.15 H170.51 Z M188.46,296.15 V305.13 H197.44 V296.15 H188.46 Z M197.44,296.15 V305.13 H206.41 V296.15 H197.44 Z M206.41,296.15 V305.13 H215.38 V296.15 H206.41 Z M224.36,296.15 V305.13 H233.33 V296.15 H224.36 Z M242.31,296.15 V305.13 H251.28 V296.15 H242.31 Z M260.26,296.15 V305.13 H269.23 V296.15 H260.26 Z M269.23,296.15 V305.13 H278.21 V296.15 H269.23 Z M278.21,296.15 V305.13 H287.18 V296.15 H278.21 Z M287.18,296.15 V305.13 H296.15 V296.15 H287.18 Z M296.15,296.15 V305.13 H305.13 V296.15 H296.15 Z M314.10,296.15 V305.13 H323.08 V296.15 H314.10 Z M332.05,296.15 V305.13 H341.03 V296.15 H332.05 Z M8.97,305.13 V314.10 H17.95 V305.13 H8.97 Z M26.92,305.13 V314.10 H35.90 V305.13 H26.92 Z M35.90,305.13 V314.10 H44.87 V305.13 H35.90 Z M44.87,305.13 V314.10 H53.85 V305.13 H44.87 Z M62.82,305.13 V314.10 H71.79 V305.13 H62.82 Z M80.77,305.13 V314.10 H89.74 V305.13 H80.77 Z M89.74,305.13 V314.10 H98.72 V305.13 H89.74 Z M107.69,305.13 V314.10 H116.67 V305.13 H107.69 Z M116.67,305.13 V314.10 H125.64 V305.13 H116.67 Z M134.62,305.13 V314.10 H143.59 V305.13 H134.62 Z M143.59,305.13 V314.10 H152.56 V305.13 H143.59 Z M179.49,305.13 V314.10 H188.46 V305.13 H179.49 Z M188.46,305.13 V314.10 H197.44 V305.13 H188.46 Z M215.38,305.13 V314.10 H224.36 V305.13 H215.38 Z M233.33,305.13 V314.10 H242.31 V305.13 H233.33 Z M242.31,305.13 V314.10 H251.28 V305.13 H242.31 Z M260.26,305.13 V314.10 H269.23 V305.13 H260.26 Z M269.23,305.13 V314.10 H278.21 V305.13 H269.23 Z M278.21,305.13 V314.10 H287.18 V305.13 H278.21 Z M287.18,305.13 V314.10 H296.15 V305.13 H287.18 Z M305.13,305.13 V314.10 H314.10 V305.13 H305.13 Z M323.08,305.13 V314.10 H332.05 V305.13 H323.08 Z M332.05,305.13 V314.10 H341.03 V305.13 H332.05 Z M8.97,314.10 V323.08 H17.95 V314.10 H8.97 Z M26.92,314.10 V323.08 H35.90 V314.10 H26.92 Z M35.90,314.10 V323.08 H44.87 V314.10 H35.90 Z M44.87,314.10 V323.08 H53.85 V314.10 H44.87 Z M62.82,314.10 V323.08 H71.79 V314.10 H62.82 Z M98.72,314.10 V323.08 H107.69 V314.10 H98.72 Z M107.69,314.10 V323.08 H116.67 V314.10 H107.69 Z M125.64,314.10 V323.08 H134.62 V314.10 H125.64 Z M134.62,314.10 V323.08 H143.59 V314.10 H134.62 Z M143.59,314.10 V323.08 H152.56 V314.10 H143.59 Z M152.56,314.10 V323.08 H161.54 V314.10 H152.56 Z M161.54,314.10 V323.08 H170.51 V314.10 H161.54 Z M197.44,314.10 V323.08 H206.41 V314.10 H197.44 Z M215.38,314.10 V323.08 H224.36 V314.10 H215.38 Z M233.33,314.10 V323.08 H242.31 V314.10 H233.33 Z M251.28,314.10 V323.08 H260.26 V314.10 H251.28 Z M269.23,314.10 V323.08 H278.21 V314.10 H269.23 Z M278.21,314.10 V323.08 H287.18 V314.10 H278.21 Z M314.10,314.10 V323.08 H323.08 V314.10 H314.10 Z M323.08,314.10 V323.08 H332.05 V314.10 H323.08 Z M8.97,323.08 V332.05 H17.95 V323.08 H8.97 Z M62.82,323.08 V332.05 H71.79 V323.08 H62.82 Z M80.77,323.08 V332.05 H89.74 V323.08 H80.77 Z M107.69,323.08 V332.05 H116.67 V323.08 H107.69 Z M116.67,323.08 V332.05 H125.64 V323.08 H116.67 Z M134.62,323.08 V332.05 H143.59 V323.08 H134.62 Z M161.54,323.08 V332.05 H170.51 V323.08 H161.54 Z M179.49,323.08 V332.05 H188.46 V323.08 H179.49 Z M188.46,323.08 V332.05 H197.44 V323.08 H188.46 Z M215.38,323.08 V332.05 H224.36 V323.08 H215.38 Z M224.36,323.08 V332.05 H233.33 V323.08 H224.36 Z M233.33,323.08 V332.05 H242.31 V323.08 H233.33 Z M242.31,323.08 V332.05 H251.28 V323.08 H242.31 Z M251.28,323.08 V332.05 H260.26 V323.08 H251.28 Z M260.26,323.08 V332.05 H269.23 V323.08 H260.26 Z M269.23,323.08 V332.05 H278.21 V323.08 H269.23 Z M278.21,323.08 V332.05 H287.18 V323.08 H278.21 Z M314.10,323.08 V332.05 H323.08 V323.08 H314.10 Z M323.08,323.08 V332.05 H332.05 V323.08 H323.08 Z M8.97,332.05 V341.03 H17.95 V332.05 H8.97 Z M17.95,332.05 V341.03 H26.92 V332.05 H17.95 Z M26.92,332.05 V341.03 H35.90 V332.05 H26.92 Z M35.90,332.05 V341.03 H44.87 V332.05 H35.90 Z M44.87,332.05 V341.03 H53.85 V332.05 H44.87 Z M53.85,332.05 V341.03 H62.82 V332.05 H53.85 Z M62.82,332.05 V341.03 H71.79 V332.05 H62.82 Z M98.72,332.05 V341.03 H107.69 V332.05 H98.72 Z M134.62,332.05 V341.03 H143.59 V332.05 H134.62 Z M170.51,332.05 V341.03 H179.49 V332.05 H170.51 Z M206.41,332.05 V341.03 H215.38 V332.05 H206.41 Z M215.38,332.05 V341.03 H224.36 V332.05 H215.38 Z M242.31,332.05 V341.03 H251.28 V332.05 H242.31 Z M251.28,332.05 V341.03 H260.26 V332.05 H251.28 Z M278.21,332.05 V341.03 H287.18 V332.05 H278.21 Z M296.15,332.05 V341.03 H305.13 V332.05 H296.15 Z M314.10,332.05 V341.03 H323.08 V332.05 H314.10 Z M323.08,332.05 V341.03 H332.05 V332.05 H323.08 Z M332.05,332.05 V341.03 H341.03 V332.05 H332.05 Z "></path></svg><circle fill="#fff" stroke-width="6px" stroke="#000" cx="175" cy="175" r="65.75"></circle><svg x="117.25" y="117.25" width="115.5" height="115.5" viewBox="0 0 24 24" fill="#000"><path d="M12 0c-6.626 0-12 5.373-12 12 0 5.302 3.438 9.8 8.207 11.387.599.111.793-.261.793-.577v-2.234c-3.338.726-4.033-1.416-4.033-1.416-.546-1.387-1.333-1.756-1.333-1.756-1.089-.745.083-.729.083-.729 1.205.084 1.839 1.237 1.839 1.237 1.07 1.834 2.807 1.304 3.492.997.107-.775.418-1.305.762-1.604-2.665-.305-5.467-1.334-5.467-5.931 0-1.311.469-2.381 1.236-3.221-.124-.303-.535-1.524.117-3.176 0 0 1.008-.322 3.301 1.23.957-.266 1.983-.399 3.003-.404 1.02.005 2.047.138 3.006.404 2.291-1.552 3.297-1.23 3.297-1.23.653 1.653.242 2.874.118 3.176.77.84 1.235 1.911 1.235 3.221 0 4.609-2.807 5.624-5.479 5.921.43.372.823 1.102.823 2.222v3.293c0 .319.192.694.801.576 4.765-1.589 8.199-6.086 8.199-11.386 0-6.627-5.373-12-12-12z"></path></svg></svg>