<svg width="350" height="350" version="1.1" xmlns="http://www.w3.org/2000/svg" xmlns:xlink="http://www.w3.org/1999/xlink"><svg><rect x="0" y="0" width="350" height="350" style="fill:#fff;shape-rendering:crispEdges;"></rect><path x="0" y="0" style="fill:#000;shape-rendering:crispEdges;" d="M10,10 V20 H20 V10 H10 Z M20,10 V20 H30 V10 H20 Z M30,10 V20 H40 V10 H30 Z M40,10 V20 H50 V10 H40 Z M50,10 V20 H60 V10 H50 Z M60,10 V20 H70 V10 H60 Z M70,10 V20 H80 V10 H70 Z M110,10 V20 H120 V10 H110 Z M130,10 V20 H140 V10 H130 Z M160,10 V20 H170 V10 H160 Z M200,10 V20 H210 V10 H200 Z M230,10 V20 H240 V10 H230 Z M250,10 V20 H260 V10 H250 Z M270,10 V20 H280 V10 H270 Z M280,10 V20 H290 V10 H280 Z M290,10 V20 H300 V10 H290 Z M300,10 V20 H310 V10 H300 Z M310,10 V20 H320 V10 H310 Z M320,10 V20 H330 V10 H320 Z M330,10 V20 H340 V10 H330 Z M10,20 V30 H20 V20 H10 Z M70,20 V30 H80 V20 H70 Z M90,20 V30 H100 V20 H90 Z M100,20 V30 H110 V20 H100 Z M110,20 V30 H120 V20 H110 Z M130,20 V30 H140 V20 H130 Z M140,20 V30 H150 V20 H140 Z M190,20 V30 H200 V20 H190 Z M240,20 V30 H250 V20 H240 Z M270,20 V30 H280 V20 H270 Z M330,20 V30 H340 V20 H330 Z M10,30 V40 H20 V30 H10 Z M30,30 V40 H40 V30 H30 Z M40,30 V40 H50 V30 H40 Z M50,30 V40 H60 V30 H50 Z M70,30 V40 H80 V30 H70 Z M90,30 V40 H100 V30 H90 Z M100,30 V40 H110 V30 H100 Z M120,30 V40 H130 V30 H120 Z M140,30 V40 H150 V30 H140 Z M150,30 V40 H160 V30 H150 Z M160,30 V40 H170 V30 H160 Z M170,30 V40 H180 V30 H170 Z M230,30 V40 H240 V30 H230 Z M270,30 V40 H280 V30 H270 Z M290,30 V40 H300 V30 H290 Z M300,30 V40 H310 V30 H300 Z M310,30 V40 H320 V30 H310 Z M330,30 V40 H340 V30 H330 Z M10,40 V50 H20 V40 H10 Z M30,40 V50 H40 V40 H30 Z M40,40 V50 H50 V40 H40 Z M50,40 V50 H60 V40 H50 Z M70,40 V50 H80 V40 H70 Z M120,40 V50 H130 V40 H120 Z M140,40 V50 H150 V40 H140 Z M150,40 V50 H160 V40 H150 Z M170,40 V50 H180 V40 H170 Z M200,40 V50 H210 V40 H200 Z M220,40 V50 H230 V40 H220 Z M230,40 V50 H240 V40 H230 Z M270,40 V50 H280 V40 H270 Z M290,40 V50 H300 V40 H290 Z M300,40 V50 H310 V40 H300 Z M310,40 V50 H320 V40 H310 Z M330,40 V50 H340 V40 H330 Z M10,50 V60 H20 V50 H10 Z M30,50 V60 H40 V50 H30 Z M40,50 V60 H50 V50 H40 Z M50,50 V60 H60 V50 H50 Z M70,50 V60 H80 V50 H70 Z M90,50 V60 H100 V50 H90 Z M100,50 V60 H110 V50 H100 Z M120,50 V60 H130 V50 H120 Z M190,50 V60 H200 V50 H190 Z M210,50 V60 H220 V50 H210 Z M270,50 V60 H280 V50 H270 Z M290,50 V60 H300 V50 H290 Z M300,50 V60 H310 V50 H300 Z M310,50 V60 H320 V50 H310 Z M330,50 V60 H340 V50 H330 Z M10,60 V70 H20 V60 H10 Z M70,60 V70 H80 V60 H70 Z M150,60 V70 H160 V60 H150 Z M160,60 V70 H170 V60 H160 Z M200,60 V70 H210 V60 H200 Z M240,60 V70 H250 V60 H240 Z M270,60 V70 H280 V60 H270 Z M330,60 V70 H340 V60 H330 Z M10,70 V80 H20 V70 H10 Z M20,70 V80 H30 V70 H20 Z M30,70 V80 H40 V70 H30 Z M40,70 V80 H50 V70 H40 Z M50,70 V80 H60 V70 H50 Z M60,70 V80 H70 V70 H60 Z M70,70 V80 H80 V70 H70 Z M90,70 V80 H100 V70 H90 Z M110,70 V80 H120 V70 H110 Z M130,70 V80 H140 V70 H130 Z M150,70 V80 H160 V70 H150 Z M170,70 V80 H180 V70 H170 Z M190,70 V80 H200 V70 H190 Z M210,70 V80 H220 V70 H210 Z M230,70 V80 H240 V70 H230 Z M250,70 V80 H260 V70 H250 Z M270,70 V80 H280 V70 H270 Z M280,70 V80 H290 V70 H280 Z M290,70 V80 H300 V70 H290 Z M300,70 V80 H310 V70 H300 Z M310,70 V80 H320 V70 H310 Z M320,70 V80 H330 V70 H320 Z M330,70 V80 H340 V70 H330 Z M90,80 V90 H100 V80 H90 Z M100,80 V90 H110 V80 H100 Z M110,80 V90 H120 V80 H110 Z M140,80 V90 H150 V80 H140 Z M150,80 V90 H160 V80 H150 Z M160,80 V90 H170 V80 H160 Z M170,80 V90 H180 V80 H170 Z M180,80 V90 H190 V80 H180 Z M200,80 V90 H210 V80 H200 Z M220,80 V90 H230 V80 H220 Z M240,80 V90 H250 V80 H240 Z M250,80 V90 H260 V80 H250 Z M10,90 V100 H20 V90 H10 Z M20,90 V100 H30 V90 H20 Z M30,90 V100 H40 V90 H30 Z M40,90 V100 H50 V90 H40 Z M50,90 V100 H60 V90 H50 Z M70,90 V100 H80 V90 H70 Z M80,90 V100 H90 V90 H80 Z M130,90 V100 H140 V90 H130 Z M150,90 V100 H160 V90 H150 Z M160,90 V100 H170 V90 H160 Z M170,90 V100 H180 V90 H170 Z M220,90 V100 H230 V90 H220 Z M230,90 V100 H240 V90 H230 Z M240,90 V100 H250 V90 H240 Z M250,90 V100 H260 V90 H250 Z M260,90 V100 H270 V90 H260 Z M270,90 V100 H280 V90 H270 Z M290,90 V100 H300 V90 H290 Z M310,90 V100 H320 V90 H310 Z M320,90 V100 H330 V90 H320 Z M10,100 V110 H20 V100 H10 Z M30,100 V110 H40 V100 H30 Z M40,100 V110 H50 V100 H40 Z M80,100 V110 H90 V100 H80 Z M100,100 V110 H110 V100 H100 Z M110,100 V110 H120 V100 H110 Z M180,100 V110 H190 V100 H180 Z M190,100 V110 H200 V100 H190 Z M240,100 V110 H250 V100 H240 Z M260,100 V110 H270 V100 H260 Z M270,100 V110 H280 V100 H270 Z M310,100 V110 H320 V100 H310 Z M320,100 V110 H330 V100 H320 Z M330,100 V110 H340 V100 H330 Z M10,110 V120 H20 V110 H10 Z M20,110 V120 H30 V110 H20 Z M50,110 V120 H60 V110 H50 Z M70,110 V120 H80 V110 H70 Z M80,110 V120 H90 V110 H80 Z M150,110 V120 H160 V110 H150 Z M160,110 V120 H170 V110 H160 Z M170,110 V120 H180 V110 H170 Z M180,110 V120 H190 V110 H180 Z M190,110 V120 H200 V110 H190 Z M200,110 V120 H210 V110 H200 Z M210,110 V120 H220 V110 H210 Z M220,110 V120 H230 V110 H220 Z M230,110 V120 H240 V110 H230 Z M240,110 V120 H250 V110 H240 Z M250,110 V120 H260 V110 H250 Z M280,110 V120 H290 V110 H280 Z M290,110 V120 H300 V110 H290 Z M300,110 V120 H310 V110 H300 Z M310,110 V120 H320 V110 H310 Z M330,110 V120 H340 V110 H330 Z M20,120 V130 H30 V120 H20 Z M30,120 V130 H40 V120 H30 Z M40,120 V130 H50 V120 H40 Z M60,120 V130 H70 V120 H60 Z M100,120 V130 H110 V120 H100 Z M130,120 V130 H140 V120 H130 Z M170,120 V130 H180 V120 H170 Z M200,120 V130 H210 V120 H200 Z M220,120 V130 H230 V120 H220 Z M260,120 V130 H270 V120 H260 Z M270,120 V130 H280 V120 H270 Z M290,120 V130 H300 V120 H290 Z M300,120 V130 H310 V120 H300 Z M330,120 V130 H340 V120 H330 Z M20,130 V140 H30 V130 H20 Z M30,130 V140 H40 V130 H30 Z M40,130 V140 H50 V130 H40 Z M60,130 V140 H70 V130 H60 Z M70,130 V140 H80 V130 H70 Z M100,130 V140 H110 V130 H100 Z M110,130 V140 H120 V130 H110 Z M120,130 V140 H130 V130 H120 Z M130,130 V140 H140 V130 H130 Z M140,130 V140 H150 V130 H140 Z M180,130 V140 H190 V130 H180 Z M200,130 V140 H210 V130 H200 Z M210,130 V140 H220 V130 H210 Z M240,130 V140 H250 V130 H240 Z M270,130 V140 H280 V130 H270 Z M280,130 V140 H290 V130 H280 Z M300,130 V140 H310 V130 H300 Z M10,140 V150 H20 V140 H10 Z M50,140 V150 H60 V140 H50 Z M60,140 V150 H70 V140 H60 Z M80,140 V150 H90 V140 H80 Z M140,140 V150 H150 V140 H140 Z M150,140 V150 H160 V140 H150 Z M160,140 V150 H170 V140 H160 Z M170,140 V150 H180 V140 H170 Z M190,140 V150 H200 V140 H190 Z M210,140 V150 H220 V140 H210 Z M220,140 V150 H230 V140 H220 Z M230,140 V150 H240 V140 H230 Z M240,140 V150 H250 V140 H240 Z M250,140 V150 H260 V140 H250 Z M270,140 V150 H280 V140 H270 Z M10,150 V160 H20 V150 H10 Z M20,150 V160 H30 V150 H20 Z M40,150 V160 H50 V150 H40 Z M50,150 V160 H60 V150 H50 Z M70,150 V160 H80 V150 H70 Z M100,150 V160 H110 V150 H100 Z M110,150 V160 H120 V150 H110 Z M140,150 V160 H150 V150 H140 Z M150,150 V160 H160 V150 H150 Z M170,150 V160 H180 V150 H170 Z M180,150 V160 H190 V150 H180 Z M200,150 V160 H210 V150 H200 Z M210,150 V160 H220 V150 H210 Z M230,150 V160 H240 V150 H230 Z M240,150 V160 H250 V150 H240 Z M270,150 V160 H280 V150 H270 Z M280,150 V160 H290 V150 H280 Z M290,150 V160 H300 V150 H290 Z M310,150 V160 H320 V150 H310 Z M330,150 V160 H340 V150 H330 Z M10,160 V170 H20 V160 H10 Z M20,160 V170 H30 V160 H20 Z M40,160 V170 H50 V160 H40 Z M60,160 V170 H70 V160 H60 Z M80,160 V170 H90 V160 H80 Z M100,160 V170 H110 V160 H100 Z M130,160 V170 H140 V160 H130 Z M140,160 V170 H150 V160 H140 Z M160,160 V170 H170 V160 H160 Z M170,160 V170 H180 V160 H170 Z M180,160 V170 H190 V160 H180 Z M200,160 V170 H210 V160 H200 Z M230,160 V170 H240 V160 H230 Z M240,160 V170 H250 V160 H240 Z M250,160 V170 H260 V160 H250 Z M270,160 V170 H280 V160 H270 Z M310,160 V170 H320 V160 H310 Z M320,160 V170 H330 V160 H320 Z M330,160 V170 H340 V160 H330 Z M10,170 V180 H20 V170 H10 Z M40,170 V180 H50 V170 H40 Z M50,170 V180 H60 V170 H50 Z M60,170 V180 H70 V170 H60 Z M70,170 V180 H80 V170 H70 Z M100,170 V180 H110 V170 H100 Z M150,170 V180 H160 V170 H150 Z M180,170 V180 H190 V170 H180 Z M200,170 V180 H210 V170 H200 Z M250,170 V180 H260 V170 H250 Z M270,170 V180 H280 V170 H270 Z M300,170 V180 H310 V170 H300 Z M20,180 V190 H30 V180 H20 Z M40,180 V190 H50 V180 H40 Z M60,180 V190 H70 V180 H60 Z M80,180 V190 H90 V180 H80 Z M90,180 V190 H100 V180 H90 Z M110,180 V190 H120 V180 H110 Z M170,180 V190 H180 V180 H170 Z M210,180 V190 H220 V180 H210 Z M220,180 V190 H230 V180 H220 Z M230,180 V190 H240 V180 H230 Z M260,180 V190 H270 V180 H260 Z M270,180 V190 H280 V180 H270 Z M280,180 V190 H290 V180 H280 Z M310,180 V190 H320 V180 H310 Z M320,180 V190 H330 V180 H320 Z M330,180 V190 H340 V180 H330 Z M10,190 V200 H20 V190 H10 Z M60,190 V200 H70 V190 H60 Z M70,190 V200 H80 V190 H70 Z M80,190 V200 H90 V190 H80 Z M100,190 V200 H110 V190 H100 Z M160,190 V200 H170 V190 H160 Z M170,190 V200 H180 V190 H170 Z M190,190 V200 H200 V190 H190 Z M210,190 V200 H220 V190 H210 Z M220,190 V200 H230 V190 H220 Z M250,190 V200 H260 V190 H250 Z M260,190 V200 H270 V190 H260 Z M270,190 V200 H280 V190 H270 Z M280,190 V200 H290 V190 H280 Z M300,190 V200 H310 V190 H300 Z M310,190 V200 H320 V190 H310 Z M320,190 V200 H330 V190 H320 Z M330,190 V200 H340 V190 H330 Z M10,200 V210 H20 V200 H10 Z M20,200 V210 H30 V200 H20 Z M40,200 V210 H50 V200 H40 Z M90,200 V210 H100 V200 H90 Z M120,200 V210 H130 V200 H120 Z M130,200 V210 H140 V200 H130 Z M140,200 V210 H150 V200 H140 Z M160,200 V210 H170 V200 H160 Z M210,200 V210 H220 V200 H210 Z M220,200 V210 H230 V200 H220 Z M230,200 V210 H240 V200 H230 Z M250,200 V210 H260 V200 H250 Z M280,200 V210 H290 V200 H280 Z M290,200 V210 H300 V200 H290 Z M300,200 V210 H310 V200 H300 Z M320,200 V210 H330 V200 H320 Z M70,210 V220 H80 V210 H70 Z M80,210 V220 H90 V210 H80 Z M100,210 V220 H110 V210 H100 Z M170,210 V220 H180 V210 H170 Z M180,210 V220 H190 V210 H180 Z M200,210 V220 H210 V210 H200 Z M210,210 V220 H220 V210 H210 Z M220,210 V220 H230 V210 H220 Z M230,210 V220 H240 V210 H230 Z M240,210 V220 H250 V210 H240 Z M250,210 V220 H260 V210 H250 Z M280,210 V220 H290 V210 H280 Z M290,210 V220 H300 V210 H290 Z M310,210 V220 H320 V210 H310 Z M330,210 V220 H340 V210 H330 Z M20,220 V230 H30 V220 H20 Z M40,220 V230 H50 V220 H40 Z M80,220 V230 H90 V220 H80 Z M90,220 V230 H100 V220 H90 Z M100,220 V230 H110 V220 H100 Z M110,220 V230 H120 V220 H110 Z M120,220 V230 H130 V220 H120 Z M150,220 V230 H160 V220 H150 Z M160,220 V230 H170 V220 H160 Z M170,220 V230 H180 V220 H170 Z M180,220 V230 H190 V220 H180 Z M190,220 V230 H200 V220 H190 Z M200,220 V230 H210 V220 H200 Z M220,220 V230 H230 V220 H220 Z M230,220 V230 H240 V220 H230 Z M240,220 V230 H250 V220 H240 Z M250,220 V230 H260 V220 H250 Z M260,220 V230 H270 V220 H260 Z M270,220 V230 H280 V220 H270 Z M280,220 V230 H290 V220 H280 Z M310,220 V230 H320 V220 H310 Z M320,220 V230 H330 V220 H320 Z M330,220 V230 H340 V220 H330 Z M10,230 V240 H20 V230 H10 Z M30,230 V240 H40 V230 H30 Z M40,230 V240 H50 V230 H40 Z M50,230 V240 H60 V230 H50 Z M70,230 V240 H80 V230 H70 Z M90,230 V240 H100 V230 H90 Z M110,230 V240 H120 V230 H110 Z M120,230 V240 H130 V230 H120 Z M140,230 V240 H150 V230 H140 Z M190,230 V240 H200 V230 H190 Z M200,230 V240 H210 V230 H200 Z M220,230 V240 H230 V230 H220 Z M230,230 V240 H240 V230 H230 Z M240,230 V240 H250 V230 H240 Z M270,230 V240 H280 V230 H270 Z M280,230 V240 H290 V230 H280 Z M300,230 V240 H310 V230 H300 Z M320,230 V240 H330 V230 H320 Z M10,240 V250 H20 V240 H10 Z M20,240 V250 H30 V240 H20 Z M40,240 V250 H50 V240 H40 Z M60,240 V250 H70 V240 H60 Z M90,240 V250 H100 V240 H90 Z M120,240 V250 H130 V240 H120 Z M130,240 V250 H140 V240 H130 Z M170,240 V250 H180 V240 H170 Z M200,240 V250 H210 V240 H200 Z M250,240 V250 H260 V240 H250 Z M270,240 V250 H280 V240 H270 Z M320,240 V250 H330 V240 H320 Z M330,240 V250 H340 V240 H330 Z M20,250 V260 H30 V250 H20 Z M40,250 V260 H50 V250 H40 Z M60,250 V260 H70 V250 H60 Z M70,250 V260 H80 V250 H70 Z M80,250 V260 H90 V250 H80 Z M100,250 V260 H110 V250 H100 Z M110,250 V260 H120 V250 H110 Z M130,250 V260 H140 V250 H130 Z M150,250 V260 H160 V250 H150 Z M160,250 V260 H170 V250 H160 Z M170,250 V260 H180 V250 H170 Z M180,250 V260 H190 V250 H180 Z M190,250 V260 H200 V250 H190 Z M200,250 V260 H210 V250 H200 Z M210,250 V260 H220 V250 H210 Z M220,250 V260 H230 V250 H220 Z M240,250 V260 H250 V250 H240 Z M250,250 V260 H260 V250 H250 Z M260,250 V260 H270 V250 H260 Z M270,250 V260 H280 V250 H270 Z M280,250 V260 H290 V250 H280 Z M290,250 V260 H300 V250 H290 Z M320,250 V260 H330 V250 H320 Z M330,250 V260 H340 V250 H330 Z M100,260 V270 H110 V260 H100 Z M130,260 V270 H140 V260 H130 Z M150,260 V270 H160 V260 H150 Z M170,260 V270 H180 V260 H170 Z M180,260 V270 H190 V260 H180 Z M190,260 V270 H200 V260 H190 Z M200,260 V270 H210 V260 H200 Z M210,260 V270 H220 V260 H210 Z M220,260 V270 H230 V260 H220 Z M230,260 V270 H240 V260 H230 Z M250,260 V270 H260 V260 H250 Z M290,260 V270 H300 V260 H290 Z M320,260 V270 H330 V260 H320 Z M330,260 V270 H340 V260 H330 Z M10,270 V280 H20 V270 H10 Z M20,270 V280 H30 V270 H20 Z M30,270 V280 H40 V270 H30 Z M40,270 V280 H50 V270 H40 Z M50,270 V280 H60 V270 H50 Z M60,270 V280 H70 V270 H60 Z M70,270 V280 H80 V270 H70 Z M90,270 V280 H100 V270 H90 Z M100,270 V280 H110 V270 H100 Z M110,270 V280 H120 V270 H110 Z M130,270 V280 H140 V270 H130 Z M140,270 V280 H150 V270 H140 Z M160,270 V280 H170 V270 H160 Z M170,270 V280 H180 V270 H170 Z M180,270 V280 H190 V270 H180 Z M190,270 V280 H200 V270 H190 Z M210,270 V280 H220 V270 H210 Z M220,270 V280 H230 V270 H220 Z M230,270 V280 H240 V270 H230 Z M240,270 V280 H250 V270 H240 Z M250,270 V280 H260 V270 H250 Z M270,270 V280 H280 V270 H270 Z M290,270 V280 H300 V270 H290 Z M320,270 V280 H330 V270 H320 Z M330,270 V280 H340 V270 H330 Z M10,280 V290 H20 V280 H10 Z M70,280 V290 H80 V280 H70 Z M100,280 V290 H110 V280 H100 Z M110,280 V290 H120 V280 H110 Z M160,280 V290 H170 V280 H160 Z M180,280 V290 H190 V280 H180 Z M200,280 V290 H210 V280 H200 Z M210,280 V290 H220 V280 H210 Z M230,280 V290 H240 V280 H230 Z M240,280 V290 H250 V280 H240 Z M250,280 V290 H260 V280 H250 Z M290,280 V290 H300 V280 H290 Z M10,290 V300 H20 V290 H10 Z M30,290 V300 H40 V290 H30 Z M40,290 V300 H50 V290 H40 Z M50,290 V300 H60 V290 H50 Z M70,290 V300 H80 V290 H70 Z M90,290 V300 H100 V290 H90 Z M120,290 V300 H130 V290 H120 Z M160,290 V300 H170 V290 H160 Z M200,290 V300 H210 V290 H200 Z M230,290 V300 H240 V290 H230 Z M240,290 V300 H250 V290 H240 Z M250,290 V300 H260 V290 H250 Z M260,290 V300 H270 V290 H260 Z M270,290 V300 H280 V290 H270 Z M280,290 V300 H290 V290 H280 Z M290,290 V300 H300 V290 H290 Z M300,290 V300 H310 V290 H300 Z M310,290 V300 H320 V290 H310 Z M320,290 V300 H330 V290 H320 Z M330,290 V300 H340 V290 H330 Z M10,300 V310 H20 V300 H10 Z M30,300 V310 H40 V300 H30 Z M40,300 V310 H50 V300 H40 Z M50,300 V310 H60 V300 H50 Z M70,300 V310 H80 V300 H70 Z M90,300 V310 H100 V300 H90 Z M130,300 V310 H140 V300 H130 Z M150,300 V310 H160 V300 H150 Z M210,300 V310 H220 V300 H210 Z M220,300 V310 H230 V300 H220 Z M230,300 V310 H240 V300 H230 Z M260,300 V310 H270 V300 H260 Z M290,300 V310 H300 V300 H290 Z M10,310 V320 H20 V310 H10 Z M30,310 V320 H40 V310 H30 Z M40,310 V320 H50 V310 H40 Z M50,310 V320 H60 V310 H50 Z M70,310 V320 H80 V310 H70 Z M90,310 V320 H100 V310 H90 Z M110,310 V320 H120 V310 H110 Z M190,310 V320 H200 V310 H190 Z M230,310 V320 H240 V310 H230 Z M270,310 V320 H280 V310 H270 Z M300,310 V320 H310 V310 H300 Z M10,320 V330 H20 V320 H10 Z M70,320 V330 H80 V320 H70 Z M90,320 V330 H100 V320 H90 Z M100,320 V330 H110 V320 H100 Z M110,320 V330 H120 V320 H110 Z M120,320 V330 H130 V320 H120 Z M150,320 V330 H160 V320 H150 Z M160,320 V330 H170 V320 H160 Z M190,320 V330 H200 V320 H190 Z M210,320 V330 H220 V320 H210 Z M220,320 V330 H230 V320 H220 Z M230,320 V330 H240 V320 H230 Z M260,320 V330 H270 V320 H260 Z M270,320 V330 H280 V320 H270 Z M280,320 V330 H290 V320 H280 Z M300,320 V330 H310 V320 H300 Z M320,320 V330 H330 V320 H320 Z M330,320 V330 H340 V320 H330 Z M10,330 V340 H20 V330 H10 Z M20,330 V340 H30 V330 H20 Z M30,330 V340 H40 V330 H30 Z M40,330 V340 H50 V330 H40 Z M50,330 V340 H60 V330 H50 Z M60,330 V340 H70 V330 H60 Z M70,330 V340 H80 V330 H70 Z M90,330 V340 H100 V330 H90 Z M100,330 V340 H110 V330 H100 Z M110,330 V340 H120 V330 H110 Z M120,330 V340 H130 V330 H120 Z M130,330 V340 H140 V330 H130 Z M140,330 V340 H150 V330 H140 Z M150,330 V340 H160 V330 H150 Z M180,330 V340 H190 V330 H180 Z M190,330 V340 H200 V330 H190 Z M200,330 V340 H210 V330 H200 Z M220,330 V340 H230 V330 H220 Z M230,330 V340 H240 V330 H230 Z M260,330 V340 H270 V330 H260 Z M270,330 V340 H280 V330 H270 Z M280,330 V340 H290 V330 H280 Z M290,330 V340 H300 V330 H290 Z M300,330 V340 H310 V330 H300 Z M310,330 V340 H320 V330 H310 Z M330,330 V340 H340 V330 H330 Z "></path></svg><circle fill="#fff" stroke-width="6px" stroke="#000" cx="175" cy="175" r="65.75"></circle><svg x="117.25" y="117.25" width="115.5" height="115.5" viewBox="0 0 24 24" fill="#000"><path d="M12 0c-6.626 0-12 5.373-12 12 0 5.302 3.438 9.8 8.207 11.387.599.111.793-.261.793-.577v-2.234c-3.338.726-4.033-1.416-4.033-1.416-.546-1.387-1.333-1.756-1.333-1.756-1.089-.745.083-.729.083-.729 1.205.084 1.839 1.237 1.839 1.237 1.07 1.834 2.807 1.304 3.492.997.107-.775.418-1.305.762-1.604-2.665-.305-5.467-1.334-5.467-5.931 0-1.311.469-2.381 1.236-3.221-.124-.303-.535-1.524.117-3.176 0 0 1.008-.322 3.301 1.23.957-.266 1.983-.399 3.003-.404 1.02.005 2.047.138 3.006.404 2.291-1.552 3.297-1.23 3.297-1.23.653 1.653.242 2.874.118 3.176.77.84 1.235 1.911 1.235 3.221 0 4.609-2.807 5.624-5.479 5.921.43.372.823 1.102.823 2.222v3.293c0 .319.192.694.801.576 4.765-1.589 8.199-6.086 8.199-11.386 0-6.627-5.373-12-12-12z"></path></svg></svg>